<?xml version="1.0" encoding="UTF-8" standalone="no"?>
<!DOCTYPE svg PUBLIC "-//W3C//DTD SVG 1.0//EN" "http://www.w3.org/TR/2001/PR-SVG-20010719/DTD/svg10.dtd">
<svg width="51cm" height="28cm" viewBox="-178 -183 1002 557" xmlns="http://www.w3.org/2000/svg" xmlns:xlink="http://www.w3.org/1999/xlink">
  <g>
    <rect style="fill: #ffffff" x="200" y="-180" width="140.9" height="28"/>
    <rect style="fill: none; fill-opacity:0; stroke-width: 2; stroke: #000000" x="200" y="-180" width="140.9" height="28"/>
    <text style="fill: #000000;text-anchor:middle;font-size:16;font-family:sanserif;font-style:normal;font-weight:700" x="270.45" y="-161">Student</text>
    <rect style="fill: #ffffff" x="200" y="-152" width="140.9" height="36"/>
    <rect style="fill: none; fill-opacity:0; stroke-width: 2; stroke: #000000" x="200" y="-152" width="140.9" height="36"/>
    <text style="fill: #000000;text-anchor:start;font-size:12.8;font-family:monospace;font-style:normal;font-weight:normal" x="203" y="-138">+name: String</text>
    <text style="fill: #000000;text-anchor:start;font-size:12.8;font-family:monospace;font-style:normal;font-weight:normal" x="203" y="-122">+matrikel_nr: int</text>
  </g>
  <g>
    <rect style="fill: #ffffff" x="536" y="-72" width="287.2" height="28"/>
    <rect style="fill: none; fill-opacity:0; stroke-width: 2; stroke: #000000" x="536" y="-72" width="287.2" height="28"/>
    <text style="fill: #000000;text-anchor:middle;font-size:16;font-family:sanserif;font-style:normal;font-weight:700" x="679.6" y="-53">Fachgruppe Informatik</text>
    <rect style="fill: #ffffff" x="536" y="-44" width="287.2" height="20"/>
    <rect style="fill: none; fill-opacity:0; stroke-width: 2; stroke: #000000" x="536" y="-44" width="287.2" height="20"/>
    <text style="fill: #000000;text-anchor:start;font-size:12.8;font-family:monospace;font-style:normal;font-weight:normal" x="539" y="-30">+mitglieder[6]: Student</text>
    <rect style="fill: #ffffff" x="536" y="-24" width="287.2" height="20"/>
    <rect style="fill: none; fill-opacity:0; stroke-width: 2; stroke: #000000" x="536" y="-24" width="287.2" height="20"/>
    <text style="fill: #000000;text-anchor:start;font-size:12.8;font-family:monospace;font-style:normal;font-weight:normal" x="539" y="-10">+treffen(wann=Mittwoch, 16:30): void</text>
  </g>
  <g>
    <polyline style="fill: none; fill-opacity:0; stroke-width: 2; stroke-dasharray: 8; stroke: #000000" points="471.5,-136 471.5,-58 529.295,-58 "/>
    <polyline style="fill: none; fill-opacity:0; stroke-width: 2; stroke: #000000" points="516.647,-53 532.647,-58 516.647,-63 "/>
    <text style="fill: #000000;text-anchor:middle;font-size:12.7998;font-family:monospace;font-style:normal;font-weight:normal" x="503.75" y="-62">wählt</text>
  </g>
  <g>
    <rect style="fill: #ffffff" x="622" y="-174" width="115.3" height="28"/>
    <rect style="fill: none; fill-opacity:0; stroke-width: 2; stroke: #000000" x="622" y="-174" width="115.3" height="28"/>
    <text style="fill: #000000;text-anchor:middle;font-size:16;font-family:sanserif;font-style:italic;font-weight:700" x="679.65" y="-155">Fachgruppe</text>
    <rect style="fill: #ffffff" x="622" y="-146" width="115.3" height="8"/>
    <rect style="fill: none; fill-opacity:0; stroke-width: 2; stroke: #000000" x="622" y="-146" width="115.3" height="8"/>
    <rect style="fill: #ffffff" x="622" y="-138" width="115.3" height="8"/>
    <rect style="fill: none; fill-opacity:0; stroke-width: 2; stroke: #000000" x="622" y="-138" width="115.3" height="8"/>
  </g>
  <g>
    <polyline style="fill: none; fill-opacity:0; stroke-width: 2; stroke: #000000" points="679.65,-111.764 679.65,-101 679.6,-101 679.6,-72 "/>
    <polygon style="fill: #ffffff" points="687.65,-111.764 679.65,-127.764 671.65,-111.764 "/>
    <polygon style="fill: none; fill-opacity:0; stroke-width: 2; stroke: #000000" points="687.65,-111.764 679.65,-127.764 671.65,-111.764 "/>
  </g>
  <g>
    <rect style="fill: #ffffff" x="380" y="-180" width="183" height="28"/>
    <rect style="fill: none; fill-opacity:0; stroke-width: 2; stroke: #000000" x="380" y="-180" width="183" height="28"/>
    <text style="fill: #000000;text-anchor:middle;font-size:16;font-family:sanserif;font-style:normal;font-weight:700" x="471.5" y="-161">Informatik-Student</text>
    <rect style="fill: #ffffff" x="380" y="-152" width="183" height="8"/>
    <rect style="fill: none; fill-opacity:0; stroke-width: 2; stroke: #000000" x="380" y="-152" width="183" height="8"/>
    <rect style="fill: #ffffff" x="380" y="-144" width="183" height="8"/>
    <rect style="fill: none; fill-opacity:0; stroke-width: 2; stroke: #000000" x="380" y="-144" width="183" height="8"/>
  </g>
  <g>
    <polyline style="fill: none; fill-opacity:0; stroke-width: 2; stroke: #000000" points="359.136,-166 380,-166 380,-166 "/>
    <polygon style="fill: #ffffff" points="359.136,-174 343.136,-166 359.136,-158 "/>
    <polygon style="fill: none; fill-opacity:0; stroke-width: 2; stroke: #000000" points="359.136,-174 343.136,-166 359.136,-158 "/>
  </g>
  <g>
    <rect style="fill: #ffffff" x="6.204" y="-17.5" width="231.7" height="28"/>
    <rect style="fill: none; fill-opacity:0; stroke-width: 2; stroke: #000000" x="6.204" y="-17.5" width="231.7" height="28"/>
    <text style="fill: #000000;text-anchor:middle;font-size:16;font-family:sanserif;font-style:normal;font-weight:700" x="122.054" y="1.5">Studierenden-Parlament</text>
    <rect style="fill: #ffffff" x="6.204" y="10.5" width="231.7" height="20"/>
    <rect style="fill: none; fill-opacity:0; stroke-width: 2; stroke: #000000" x="6.204" y="10.5" width="231.7" height="20"/>
    <text style="fill: #000000;text-anchor:start;font-size:12.8;font-family:monospace;font-style:normal;font-weight:normal" x="9.204" y="24.5">+mitglieder[]: Student</text>
    <rect style="fill: #ffffff" x="6.204" y="30.5" width="231.7" height="20"/>
    <rect style="fill: none; fill-opacity:0; stroke-width: 2; stroke: #000000" x="6.204" y="30.5" width="231.7" height="20"/>
    <text style="fill: #000000;text-anchor:start;font-size:12.8;font-family:monospace;font-style:normal;font-weight:normal" x="9.204" y="44.5">+sitzung(): List&lt;Beschluss&gt;</text>
  </g>
  <g>
    <polyline style="fill: none; fill-opacity:0; stroke-width: 2; stroke-dasharray: 8; stroke: #000000" points="200,-166 122.054,-166 122.054,-24.2052 "/>
    <polyline style="fill: none; fill-opacity:0; stroke-width: 2; stroke: #000000" points="117.054,-36.8526 122.054,-20.8526 127.054,-36.8526 "/>
    <text style="fill: #000000;text-anchor:middle;font-size:12.7998;font-family:monospace;font-style:normal;font-weight:normal" x="161.027" y="-170">wählt</text>
  </g>
  <g>
    <rect style="fill: #ffffff" x="-94.796" y="120.75" width="187.1" height="28"/>
    <rect style="fill: none; fill-opacity:0; stroke-width: 2; stroke: #000000" x="-94.796" y="120.75" width="187.1" height="28"/>
    <text style="fill: #000000;text-anchor:middle;font-size:16;font-family:sanserif;font-style:normal;font-weight:700" x="-1.246" y="139.75">AStA</text>
    <rect style="fill: #ffffff" x="-94.796" y="148.75" width="187.1" height="20"/>
    <rect style="fill: none; fill-opacity:0; stroke-width: 2; stroke: #000000" x="-94.796" y="148.75" width="187.1" height="20"/>
    <text style="fill: #000000;text-anchor:start;font-size:12.8;font-family:monospace;font-style:normal;font-weight:normal" x="-91.796" y="162.75">+mitglieder[6]: Student</text>
    <rect style="fill: #ffffff" x="-94.796" y="168.75" width="187.1" height="8"/>
    <rect style="fill: none; fill-opacity:0; stroke-width: 2; stroke: #000000" x="-94.796" y="168.75" width="187.1" height="8"/>
  </g>
  <g>
    <polyline style="fill: none; fill-opacity:0; stroke-width: 2; stroke-dasharray: 8; stroke: #000000" points="122.054,50.5 122.054,89.75 -1.246,89.75 -1.246,114.045 "/>
    <polyline style="fill: none; fill-opacity:0; stroke-width: 2; stroke: #000000" points="-6.246,101.397 -1.246,117.397 3.754,101.397 "/>
    <text style="fill: #000000;text-anchor:middle;font-size:12.7998;font-family:monospace;font-style:normal;font-weight:normal" x="60.404" y="85.75">wählt</text>
  </g>
  <g>
    <rect style="fill: #ffffff" x="327.204" y="117.5" width="187.1" height="28"/>
    <rect style="fill: none; fill-opacity:0; stroke-width: 2; stroke: #000000" x="327.204" y="117.5" width="187.1" height="28"/>
    <text style="fill: #000000;text-anchor:middle;font-size:16;font-family:sanserif;font-style:normal;font-weight:700" x="420.754" y="136.5">Präsidium</text>
    <rect style="fill: #ffffff" x="327.204" y="145.5" width="187.1" height="20"/>
    <rect style="fill: none; fill-opacity:0; stroke-width: 2; stroke: #000000" x="327.204" y="145.5" width="187.1" height="20"/>
    <text style="fill: #000000;text-anchor:start;font-size:12.8;font-family:monospace;font-style:normal;font-weight:normal" x="330.204" y="159.5">+mitglieder[3]: Student</text>
    <rect style="fill: #ffffff" x="327.204" y="165.5" width="187.1" height="8"/>
    <rect style="fill: none; fill-opacity:0; stroke-width: 2; stroke: #000000" x="327.204" y="165.5" width="187.1" height="8"/>
  </g>
  <g>
    <polyline style="fill: none; fill-opacity:0; stroke-width: 2; stroke-dasharray: 8; stroke: #000000" points="122.054,50.5 122.054,89.5 420.754,89.5 420.754,110.795 "/>
    <polyline style="fill: none; fill-opacity:0; stroke-width: 2; stroke: #000000" points="415.754,98.1474 420.754,114.147 425.754,98.1474 "/>
    <text style="fill: #000000;text-anchor:middle;font-size:12.7998;font-family:monospace;font-style:normal;font-weight:normal" x="271.404" y="85.5">wählt</text>
  </g>
  <g>
    <rect style="fill: #ffffff" x="-97.796" y="238.5" width="76.7" height="28"/>
    <rect style="fill: none; fill-opacity:0; stroke-width: 2; stroke: #000000" x="-97.796" y="238.5" width="76.7" height="28"/>
    <text style="fill: #000000;text-anchor:middle;font-size:16;font-family:sanserif;font-style:italic;font-weight:700" x="-59.446" y="257.5">Referat</text>
    <rect style="fill: #ffffff" x="-97.796" y="266.5" width="76.7" height="8"/>
    <rect style="fill: none; fill-opacity:0; stroke-width: 2; stroke: #000000" x="-97.796" y="266.5" width="76.7" height="8"/>
    <rect style="fill: #ffffff" x="-97.796" y="274.5" width="76.7" height="8"/>
    <rect style="fill: none; fill-opacity:0; stroke-width: 2; stroke: #000000" x="-97.796" y="274.5" width="76.7" height="8"/>
  </g>
  <g>
    <polyline style="fill: none; fill-opacity:0; stroke-width: 2; stroke-dasharray: 8; stroke: #000000" points="-1.246,176.75 -1.246,207.625 -59.446,207.625 -59.446,231.795 "/>
    <polyline style="fill: none; fill-opacity:0; stroke-width: 2; stroke: #000000" points="-64.446,219.147 -59.446,235.147 -54.446,219.147 "/>
    <text style="fill: #000000;text-anchor:middle;font-size:12.7998;font-family:monospace;font-style:normal;font-weight:normal" x="-30.346" y="203.625">benennt</text>
  </g>
  <g>
    <rect style="fill: #ffffff" x="-176.796" y="329.5" width="122.4" height="28"/>
    <rect style="fill: none; fill-opacity:0; stroke-width: 2; stroke: #000000" x="-176.796" y="329.5" width="122.4" height="28"/>
    <text style="fill: #000000;text-anchor:middle;font-size:16;font-family:sanserif;font-style:normal;font-weight:700" x="-115.596" y="348.5">Sportreferat</text>
    <rect style="fill: #ffffff" x="-176.796" y="357.5" width="122.4" height="8"/>
    <rect style="fill: none; fill-opacity:0; stroke-width: 2; stroke: #000000" x="-176.796" y="357.5" width="122.4" height="8"/>
    <rect style="fill: #ffffff" x="-176.796" y="365.5" width="122.4" height="8"/>
    <rect style="fill: none; fill-opacity:0; stroke-width: 2; stroke: #000000" x="-176.796" y="365.5" width="122.4" height="8"/>
  </g>
  <g>
    <rect style="fill: #ffffff" x="-41.796" y="329.5" width="126.5" height="28"/>
    <rect style="fill: none; fill-opacity:0; stroke-width: 2; stroke: #000000" x="-41.796" y="329.5" width="126.5" height="28"/>
    <text style="fill: #000000;text-anchor:middle;font-size:16;font-family:sanserif;font-style:normal;font-weight:700" x="21.454" y="348.5">Sozialreferat</text>
    <rect style="fill: #ffffff" x="-41.796" y="357.5" width="126.5" height="8"/>
    <rect style="fill: none; fill-opacity:0; stroke-width: 2; stroke: #000000" x="-41.796" y="357.5" width="126.5" height="8"/>
    <rect style="fill: #ffffff" x="-41.796" y="365.5" width="126.5" height="8"/>
    <rect style="fill: none; fill-opacity:0; stroke-width: 2; stroke: #000000" x="-41.796" y="365.5" width="126.5" height="8"/>
  </g>
  <g>
    <polyline style="fill: none; fill-opacity:0; stroke-width: 2; stroke: #000000" points="-59.446,300.736 -59.446,306 -115.596,306 -115.596,329.5 "/>
    <polygon style="fill: #ffffff" points="-51.446,300.736 -59.446,284.736 -67.446,300.736 "/>
    <polygon style="fill: none; fill-opacity:0; stroke-width: 2; stroke: #000000" points="-51.446,300.736 -59.446,284.736 -67.446,300.736 "/>
  </g>
  <g>
    <polyline style="fill: none; fill-opacity:0; stroke-width: 2; stroke: #000000" points="-59.446,300.736 -59.446,306 21.454,306 21.454,329.5 "/>
    <polygon style="fill: #ffffff" points="-51.446,300.736 -59.446,284.736 -67.446,300.736 "/>
    <polygon style="fill: none; fill-opacity:0; stroke-width: 2; stroke: #000000" points="-51.446,300.736 -59.446,284.736 -67.446,300.736 "/>
  </g>
  <text style="fill: #000000;text-anchor:start;font-size:12.8;font-family:sanserif;font-style:normal;font-weight:normal" x="99.204" y="341.5">
    <tspan x="99.204" y="341.5">...</tspan>
  </text>
  <g>
    <polyline style="fill: none; fill-opacity:0; stroke-width: 2; stroke: #000000" points="-59.471,300.736 -59.471,305.75 106.204,305.75 106.204,330.5 "/>
    <polygon style="fill: #ffffff" points="-51.471,300.736 -59.471,284.736 -67.471,300.736 "/>
    <polygon style="fill: none; fill-opacity:0; stroke-width: 2; stroke: #000000" points="-51.471,300.736 -59.471,284.736 -67.471,300.736 "/>
  </g>
  <g>
    <rect style="fill: #ffffff" x="572" y="159" width="248.7" height="28"/>
    <rect style="fill: none; fill-opacity:0; stroke-width: 2; stroke: #000000" x="572" y="159" width="248.7" height="28"/>
    <text style="fill: #000000;text-anchor:middle;font-size:16;font-family:sanserif;font-style:normal;font-weight:700" x="696.35" y="178">Vollversammlung</text>
    <rect style="fill: #ffffff" x="572" y="187" width="248.7" height="8"/>
    <rect style="fill: none; fill-opacity:0; stroke-width: 2; stroke: #000000" x="572" y="187" width="248.7" height="8"/>
    <rect style="fill: #ffffff" x="572" y="195" width="248.7" height="20"/>
    <rect style="fill: none; fill-opacity:0; stroke-width: 2; stroke: #000000" x="572" y="195" width="248.7" height="20"/>
    <text style="fill: #000000;text-anchor:start;font-size:12.8;font-family:monospace;font-style:normal;font-weight:normal" x="575" y="209">+abstimmung(thema:String): bool</text>
  </g>
  <g>
    <polyline style="fill: none; fill-opacity:0; stroke-width: 2; stroke-dasharray: 8; stroke: #000000" points="514.304,131.5 543.152,131.5 543.152,173 565.295,173 "/>
    <polyline style="fill: none; fill-opacity:0; stroke-width: 2; stroke: #000000" points="552.647,178 568.647,173 552.647,168 "/>
    <text style="fill: #000000;text-anchor:start;font-size:12.7998;font-family:monospace;font-style:normal;font-weight:normal" x="545.152" y="148.25">organisiert</text>
  </g>
  <g>
    <polyline style="fill: none; fill-opacity:0; stroke-width: 2; stroke-dasharray: 8; stroke: #000000" points="270.45,-116 270.45,22.25 696.35,22.25 696.35,152.295 "/>
    <polyline style="fill: none; fill-opacity:0; stroke-width: 2; stroke: #000000" points="691.35,139.647 696.35,155.647 701.35,139.647 "/>
    <text style="fill: #000000;text-anchor:middle;font-size:12.7998;font-family:monospace;font-style:normal;font-weight:normal" x="483.4" y="18.25">geht zu</text>
  </g>
  <g>
    <rect style="fill: #ffffff" x="117.202" y="117.75" width="179.4" height="28"/>
    <rect style="fill: none; fill-opacity:0; stroke-width: 2; stroke: #000000" x="117.202" y="117.75" width="179.4" height="28"/>
    <text style="fill: #000000;text-anchor:middle;font-size:16;font-family:sanserif;font-style:normal;font-weight:700" x="206.902" y="136.75">Ausschuss</text>
    <rect style="fill: #ffffff" x="117.202" y="145.75" width="179.4" height="20"/>
    <rect style="fill: none; fill-opacity:0; stroke-width: 2; stroke: #000000" x="117.202" y="145.75" width="179.4" height="20"/>
    <text style="fill: #000000;text-anchor:start;font-size:12.8;font-family:monospace;font-style:normal;font-weight:normal" x="120.202" y="159.75">+mitglieder[]: Student</text>
    <rect style="fill: #ffffff" x="117.202" y="165.75" width="179.4" height="8"/>
    <rect style="fill: none; fill-opacity:0; stroke-width: 2; stroke: #000000" x="117.202" y="165.75" width="179.4" height="8"/>
  </g>
  <g>
    <polyline style="fill: none; fill-opacity:0; stroke-width: 2; stroke-dasharray: 8; stroke: #000000" points="122.054,50.5 122.054,89.75 206.902,89.75 206.902,111.045 "/>
    <polyline style="fill: none; fill-opacity:0; stroke-width: 2; stroke: #000000" points="201.902,98.3974 206.902,114.397 211.902,98.3974 "/>
  </g>
  <g>
    <rect style="fill: #ffffff" x="13.202" y="238.75" width="233.3" height="28"/>
    <rect style="fill: none; fill-opacity:0; stroke-width: 2; stroke: #000000" x="13.202" y="238.75" width="233.3" height="28"/>
    <text style="fill: #000000;text-anchor:middle;font-size:16;font-family:sanserif;font-style:normal;font-weight:700" x="129.852" y="257.75">Haushaltsausschuss</text>
    <rect style="fill: #ffffff" x="13.202" y="266.75" width="233.3" height="8"/>
    <rect style="fill: none; fill-opacity:0; stroke-width: 2; stroke: #000000" x="13.202" y="266.75" width="233.3" height="8"/>
    <rect style="fill: #ffffff" x="13.202" y="274.75" width="233.3" height="20"/>
    <rect style="fill: none; fill-opacity:0; stroke-width: 2; stroke: #000000" x="13.202" y="274.75" width="233.3" height="20"/>
    <text style="fill: #000000;text-anchor:start;font-size:12.8;font-family:monospace;font-style:normal;font-weight:normal" x="16.202" y="288.75">+erstelleHaushalt(): Haushalt</text>
  </g>
  <g>
    <polyline style="fill: none; fill-opacity:0; stroke-width: 2; stroke: #000000" points="206.902,191.986 206.902,206.25 129.852,206.25 129.852,238.75 "/>
    <polygon style="fill: #ffffff" points="214.902,191.986 206.902,175.986 198.902,191.986 "/>
    <polygon style="fill: none; fill-opacity:0; stroke-width: 2; stroke: #000000" points="214.902,191.986 206.902,175.986 198.902,191.986 "/>
  </g>
  <g>
    <rect style="fill: #ffffff" x="265.202" y="240.75" width="194.8" height="28"/>
    <rect style="fill: none; fill-opacity:0; stroke-width: 2; stroke: #000000" x="265.202" y="240.75" width="194.8" height="28"/>
    <text style="fill: #000000;text-anchor:middle;font-size:16;font-family:sanserif;font-style:normal;font-weight:700" x="362.602" y="259.75">Wahlausschuss</text>
    <rect style="fill: #ffffff" x="265.202" y="268.75" width="194.8" height="8"/>
    <rect style="fill: none; fill-opacity:0; stroke-width: 2; stroke: #000000" x="265.202" y="268.75" width="194.8" height="8"/>
    <rect style="fill: #ffffff" x="265.202" y="276.75" width="194.8" height="20"/>
    <rect style="fill: none; fill-opacity:0; stroke-width: 2; stroke: #000000" x="265.202" y="276.75" width="194.8" height="20"/>
    <text style="fill: #000000;text-anchor:start;font-size:12.8;font-family:monospace;font-style:normal;font-weight:normal" x="268.202" y="290.75">+organisiereWahl(): void</text>
  </g>
  <g>
    <polyline style="fill: none; fill-opacity:0; stroke-width: 2; stroke: #000000" points="206.902,191.986 206.902,207.25 362.602,207.25 362.602,240.75 "/>
    <polygon style="fill: #ffffff" points="214.902,191.986 206.902,175.986 198.902,191.986 "/>
    <polygon style="fill: none; fill-opacity:0; stroke-width: 2; stroke: #000000" points="214.902,191.986 206.902,175.986 198.902,191.986 "/>
  </g>
</svg>
