<?xml version="1.0" encoding="UTF-8" standalone="no"?>
<!-- Created with Inkscape (http://www.inkscape.org/) -->

<svg
   xmlns:dc="http://purl.org/dc/elements/1.1/"
   xmlns:cc="http://creativecommons.org/ns#"
   xmlns:rdf="http://www.w3.org/1999/02/22-rdf-syntax-ns#"
   xmlns:svg="http://www.w3.org/2000/svg"
   xmlns="http://www.w3.org/2000/svg"
   xmlns:sodipodi="http://sodipodi.sourceforge.net/DTD/sodipodi-0.dtd"
   xmlns:inkscape="http://www.inkscape.org/namespaces/inkscape"
   width="210mm"
   height="297mm"
   viewBox="0 0 210 297"
   version="1.1"
   id="svg592"
   inkscape:version="0.92.2 5c3e80d, 2017-08-06"
   sodipodi:docname="cover.svg">
  <defs
     id="defs586" />
  <sodipodi:namedview
     id="base"
     pagecolor="#ffffff"
     bordercolor="#666666"
     borderopacity="1.0"
     inkscape:pageopacity="0.0"
     inkscape:pageshadow="2"
     inkscape:zoom="0.7"
     inkscape:cx="368.44942"
     inkscape:cy="962.57194"
     inkscape:document-units="mm"
     inkscape:current-layer="layer1"
     showgrid="false"
     inkscape:pagecheckerboard="false"
     showguides="true"
     inkscape:guide-bbox="true"
     inkscape:window-width="1240"
     inkscape:window-height="856"
     inkscape:window-x="0"
     inkscape:window-y="0"
     inkscape:window-maximized="0">
    <sodipodi:guide
       position="8,194.27977"
       orientation="1,0"
       id="guide726"
       inkscape:locked="false"
       inkscape:label=""
       inkscape:color="rgb(0,0,255)" />
    <sodipodi:guide
       position="111.125,8"
       orientation="0,1"
       id="guide728"
       inkscape:locked="false"
       inkscape:label="90"
       inkscape:color="rgb(0,0,255)" />
    <sodipodi:guide
       position="205,150.45834"
       orientation="1,0"
       id="guide730"
       inkscape:locked="false"
       inkscape:label=""
       inkscape:color="rgb(0,0,255)" />
    <sodipodi:guide
       position="130.77976,289"
       orientation="0,1"
       id="guide732"
       inkscape:locked="false"
       inkscape:label=""
       inkscape:color="rgb(0,0,255)" />
  </sodipodi:namedview>
  <metadata
     id="metadata589">
    <rdf:RDF>
      <cc:Work
         rdf:about="">
        <dc:format>image/svg+xml</dc:format>
        <dc:type
           rdf:resource="http://purl.org/dc/dcmitype/StillImage" />
        <dc:title />
      </cc:Work>
    </rdf:RDF>
  </metadata>
  <g
     inkscape:label="Layer 1"
     inkscape:groupmode="layer"
     id="layer1">
    <g
       style="display:inline"
       id="layer3"
       transform="matrix(0.39702324,0,0,0.39702324,-204.51211,3.7293984)">
      <g
         id="g4034">
        <path
           style="display:inline;fill:#f0d600;fill-opacity:1"
           id="path391"
           d="m 957.57843,147.75305 h -1.65498 v 1.71879 h 1.65498 z m 1.32499,-1.47626 h -1.31503 v 1.47874 h 1.31503 z m -1.33,3.1988 v 1.48245 h -2.98374 v 3.1975 h 1.33127 v 1.46999 h -1.33127 v 1.7388 0 h -1.67372 v 1.46875 h -1.32631 v 1.72246 h -1.66868 v -1.71373 h -1.33504 v 1.71996 h -1.66249 v 1.48 h 1.66624 v -1.47749 h 1.32629 v 1.485 h -1.32879 v 1.46747 h -1.65372 v -1.46747 h -1.34 v 1.46747 h -2.98999 v 1.72125 h 1.66621 v 1.47623 h 7.3288 V 165.238 h 1.58873 1.40499 v -1.71371 h 1.34623 v -1.47501 h 1.64124 v -3.21993 h 1.32752 v -3.18757 h 1.67123 v -6.16122 h -3.005 z m -4.65,7.87876 v -1.71754 h 1.66754 v -1.48127 h -1.675 v 1.47626 h -1.33378 v 1.72126 h -1.65745 v 1.47629 h 1.6662 v -1.475 z"
           inkscape:connector-curvature="0" />
        <rect
           style="fill:#ece8eb"
           id="rect393"
           height="1.4662474"
           width="1.6737474"
           y="160.56033"
           x="952.9173" />
        <rect
           style="fill:#ece8eb"
           id="rect395"
           height="1.4662474"
           width="1.331248"
           y="162.03754"
           x="951.591" />
        <rect
           style="fill:#ece8eb"
           id="rect397"
           height="1.7137475"
           width="1.6837475"
           y="163.51936"
           x="949.91595" />
      </g>
      <g
         id="g4049">
        <polygon
           transform="matrix(1.2499978,0,0,1.2499978,0,-4.3059132e-4)"
           style="fill:#e1071d"
           id="polygon399"
           points="576.705,453.826 566.053,453.826 566.053,455.197 564.981,455.197 564.981,460.121 566.053,460.121 566.053,462.689 567.379,462.689 567.379,463.864 568.457,463.864 568.457,465.242 570.842,465.242 570.842,466.432 572.186,466.432 572.186,465.242 574.572,465.242 574.572,462.689 576.705,462.689 576.705,460.121 578.037,460.121 578.037,455.197 576.705,455.197 " />
        <rect
           style="fill:#e8a948"
           id="rect401"
           height="3.2087448"
           width="1.6699972"
           y="564.0708"
           x="713.54785" />
        <rect
           style="fill:#ece8eb"
           id="rect403"
           height="1.4799979"
           width="1.3337479"
           y="568.99664"
           x="719.55499" />
        <rect
           style="fill:#ece8eb"
           id="rect405"
           height="1.4849976"
           width="1.6787474"
           y="570.47229"
           x="716.54767" />
        <rect
           style="fill:#ece8eb"
           id="rect407"
           height="1.7287477"
           width="1.6699972"
           y="571.95392"
           x="713.55414" />
        <rect
           style="fill:#ece8eb"
           id="rect409"
           height="1.4849976"
           width="1.6649972"
           y="570.47229"
           x="707.55884" />
        <rect
           style="fill:#ece8eb"
           id="rect411"
           height="1.7287477"
           width="1.6699972"
           y="571.95392"
           x="710.55627" />
        <rect
           style="fill:#ece8eb"
           id="rect413"
           height="1.7224976"
           width="1.6699972"
           y="575.15704"
           x="713.55414" />
        <rect
           style="fill:#ece8eb"
           id="rect415"
           height="1.7299975"
           width="1.3349979"
           y="575.1521"
           x="709.22516" />
        <rect
           style="fill:#ece8eb"
           id="rect417"
           height="1.4849976"
           width="1.3337479"
           y="578.35529"
           x="712.22131" />
        <rect
           style="fill:#ece8eb"
           id="rect419"
           height="1.4762478"
           width="1.6662471"
           y="578.35773"
           x="716.54889" />
        <rect
           style="fill:#ece8eb"
           id="rect421"
           height="1.4762478"
           width="1.3424978"
           y="573.68274"
           x="718.21136" />
        <polygon
           transform="matrix(1.2499978,0,0,1.2499978,0,-4.3059132e-4)"
           style="fill:#72b222"
           id="polygon423"
           points="567.383,452.64 567.383,453.825 568.447,453.825 568.447,455.203 570.844,455.203 570.844,456.384 572.182,456.384 572.182,455.203 574.572,455.203 574.572,453.825 575.644,453.825 575.644,452.64 572.175,452.64 572.175,453.825 570.839,453.825 570.839,452.64 " />
      </g>
      <g
         id="g4100">
        <polygon
           transform="matrix(1.2499978,0,0,1.2499978,0,-4.3059132e-4)"
           style="fill:#72b222"
           id="polygon445"
           points="503.126,74.271 503.126,74.267 504.198,74.267 504.198,72.881 505.537,72.881 505.537,71.699 503.126,71.699 503.126,70.313 500.724,70.313 500.724,71.699 499.216,71.699 499.216,72.881 500.724,72.881 500.724,74.271 " />
        <polygon
           transform="matrix(1.2499978,0,0,1.2499978,0,-4.3059132e-4)"
           style="fill:#fbc449"
           id="polygon447"
           points="503.13,85.488 503.13,84.304 505.529,84.304 505.529,81.751 506.597,81.751 506.597,76.619 505.529,76.619 505.529,75.442 504.2,75.442 504.2,74.261 494.606,74.261 494.606,75.442 493.541,75.442 493.541,76.619 492.204,76.619 492.204,81.751 493.541,81.751 493.541,84.304 495.937,84.304 495.937,85.488 " />
        <polygon
           transform="matrix(1.2499978,0,0,1.2499978,0,-4.3059132e-4)"
           style="fill:#e8a948"
           id="polygon449"
           points="498.333,75.443 498.333,76.624 499.403,76.624 499.403,75.443 500.729,75.443 500.729,74.261 499.403,74.261 499.403,71.699 498.333,71.699 498.333,74.261 497.004,74.261 497.004,75.443 " />
      </g>
      <g
         id="g3957">
        <polygon
           points="695.934,191.376 697.252,191.376 697.252,192.754 698.321,192.754 698.321,193.942 700.74,193.942 700.74,192.754 702.054,192.754 702.054,193.942 705.524,193.942 705.524,192.754 706.595,192.754 706.595,191.376 707.915,191.376 707.915,189.007 708.988,189.007 708.988,182.691 707.925,182.691 707.925,181.328 706.591,181.328 706.591,180.141 703.127,180.141 703.127,181.328 699.652,181.328 699.652,180.141 695.933,180.141 695.933,181.328 694.864,181.328 694.864,189.006 695.934,189.006 "
           id="polygon371"
           style="fill:#e1071d"
           transform="matrix(1.2499978,0,0,1.2499978,0,-4.3059132e-4)" />
        <rect
           x="877.57599"
           y="223.46788"
           width="1.3349979"
           height="1.7212474"
           id="rect379"
           style="fill:#e8a948" />
        <rect
           style="fill:#ece8eb"
           id="rect373"
           height="1.4762478"
           width="1.6624973"
           y="236.26825"
           x="880.24463" />
        <rect
           style="fill:#ece8eb"
           id="rect375"
           height="3.217494"
           width="1.3299979"
           y="233.0578"
           x="881.90747" />
        <rect
           style="fill:#e8a948"
           id="rect377"
           height="3.2037449"
           width="1.6737474"
           y="225.18924"
           x="875.90356" />
      </g>
      <g
         style="display:inline"
         id="g5667">
        <polygon
           transform="matrix(1.2499978,0,0,1.2499978,0,-4.3059132e-4)"
           style="fill:#72b222"
           id="polygon381"
           points="550.313,199.645 550.313,197.083 549.242,197.083 549.242,193.345 547.898,193.345 547.898,190.773 544.438,190.773 544.438,193.345 543.122,193.345 543.122,197.083 542.055,197.083 542.055,199.645 540.727,199.645 540.727,203.382 542.055,203.382 542.055,204.573 543.122,204.573 543.122,205.752 549.242,205.752 549.242,204.573 550.313,204.573 550.313,203.382 551.369,203.382 551.369,199.645 " />
        <rect
           style="fill:#61ba9b"
           id="rect383"
           height="2.9774957"
           width="1.6712474"
           y="249.53006"
           x="678.89911" />
        <rect
           style="fill:#61ba9b"
           id="rect385"
           height="1.7312477"
           width="1.3287479"
           y="252.50851"
           x="680.56903" />
        <rect
           style="fill:#e8a948"
           id="rect387"
           height="1.7112474"
           width="1.6612474"
           y="236.75659"
           x="681.90399" />
        <rect
           style="fill:#e8a948"
           id="rect389"
           height="1.4649975"
           width="2.9949949"
           y="235.29172"
           x="683.56635" />
      </g>
      <g
         id="g5688">
        <polygon
           transform="matrix(1.2499978,0,0,1.2499978,0,-4.3059132e-4)"
           style="fill:#e1071d"
           id="polygon345"
           points="544.931,317.173 544.931,320.523 541.578,320.523 541.578,319.406 540.46,319.406 540.46,314.937 541.578,314.937 541.578,313.822 546.048,313.822 546.048,314.937 547.165,314.937 547.165,316.054 546.048,316.054 546.048,317.173 " />
        <polygon
           transform="matrix(1.2499978,0,0,1.2499978,0,-4.3059132e-4)"
           style="fill:#e1071d"
           id="polygon347"
           points="547.166,316.054 551.632,316.054 551.632,317.172 552.749,317.172 552.749,321.64 551.632,321.64 551.632,322.758 547.166,322.758 547.166,321.64 546.048,321.64 546.048,317.172 547.166,317.172 " />
        <polygon
           transform="matrix(1.2499978,0,0,1.2499978,0,-4.3059132e-4)"
           style="fill:#e8a948"
           id="polygon349"
           points="550.515,313.822 550.515,311.585 549.397,311.585 549.397,310.47 551.632,310.47 551.632,309.353 553.867,309.353 553.867,311.585 551.632,311.585 551.632,313.822 " />
        <rect
           style="fill:#e8a948"
           id="rect351"
           height="1.3937479"
           width="1.397498"
           y="392.2789"
           x="686.74396" />
        <rect
           style="fill:#e8a948"
           id="rect353"
           height="4.1912422"
           width="1.3924978"
           y="393.67032"
           x="685.35132" />
        <rect
           style="fill:#e8a948"
           id="rect355"
           height="1.3987479"
           width="2.7899959"
           y="389.47845"
           x="683.95392" />
        <rect
           style="fill:#e8a948"
           id="rect357"
           height="1.397498"
           width="1.397498"
           y="390.87994"
           x="682.55884" />
        <rect
           style="fill:#e8a948"
           id="rect359"
           height="1.3937479"
           width="1.397498"
           y="392.2789"
           x="681.16125" />
        <rect
           style="fill:#e8a948"
           id="rect361"
           height="1.397498"
           width="1.397498"
           y="393.66785"
           x="679.76373" />
        <rect
           style="fill:#ece8eb"
           id="rect363"
           height="1.3962479"
           width="1.397498"
           y="396.46338"
           x="676.97162" />
        <rect
           style="fill:#ece8eb"
           id="rect365"
           height="1.394998"
           width="1.3962479"
           y="397.86227"
           x="678.36761" />
        <rect
           style="fill:#ece8eb"
           id="rect367"
           height="1.394998"
           width="1.397498"
           y="399.25876"
           x="683.95392" />
        <rect
           style="fill:#ece8eb"
           id="rect369"
           height="1.397498"
           width="1.3924978"
           y="400.65283"
           x="685.35132" />
      </g>
      <polygon
         points="554.013,462.44 554.013,461.291 555.162,461.291 555.162,460.143 555.162,458.996 555.162,457.848 555.162,456.7 554.013,456.7 554.013,455.551 554.013,454.405 552.865,454.405 552.865,453.254 551.717,453.254 551.717,452.109 550.569,452.109 550.569,453.254 550.569,454.405 550.569,455.551 549.421,455.551 549.421,456.7 549.421,457.848 549.421,458.996 548.272,458.996 548.272,460.143 548.272,461.291 548.272,462.44 547.126,462.44 545.977,462.44 545.977,461.291 545.977,460.143 545.977,458.996 544.83,458.996 544.83,457.848 544.83,456.7 544.83,455.551 543.682,455.551 543.682,454.405 543.682,453.254 543.682,452.109 542.533,452.109 542.533,453.254 541.385,453.254 541.385,454.405 540.237,454.405 540.237,455.551 540.237,456.7 539.09,456.7 539.09,457.848 539.09,458.996 539.09,460.143 539.09,461.291 540.237,461.291 540.237,462.44 540.237,463.588 541.385,463.588 541.385,464.735 542.533,464.735 542.533,465.884 543.682,465.884 544.83,465.884 544.83,467.031 545.977,467.031 547.126,467.031 548.272,467.031 549.421,467.031 549.421,465.884 550.569,465.884 551.717,465.884 551.717,464.735 552.865,464.735 552.865,463.588 554.013,463.588 "
         id="polygon343"
         style="fill:#f0d800;fill-opacity:1"
         transform="matrix(1.2499978,0,0,1.2499978,0,-4.3059132e-4)" />
      <g
         style="display:inline"
         id="g4061">
        <rect
           style="fill:#23221f"
           id="rect425"
           height="1.3337479"
           width="1.3299979"
           y="447.33249"
           x="626.71143" />
        <rect
           style="fill:#23221f"
           id="rect427"
           height="1.3337479"
           width="1.3349979"
           y="447.33249"
           x="628.04272" />
        <rect
           style="fill:#23221f"
           id="rect429"
           height="1.3337479"
           width="1.3324978"
           y="447.33249"
           x="620.04907" />
        <rect
           style="fill:#23221f"
           id="rect431"
           height="1.3337479"
           width="1.3337479"
           y="447.33249"
           x="618.71521" />
        <rect
           style="fill:#23221f"
           id="rect433"
           height="1.3299979"
           width="1.3299979"
           y="446.00192"
           x="626.71143" />
        <rect
           style="fill:#23221f"
           id="rect435"
           height="1.3299979"
           width="1.3349979"
           y="446.00192"
           x="628.04272" />
        <rect
           style="fill:#23221f"
           id="rect437"
           height="1.3299979"
           width="1.3324978"
           y="446.00192"
           x="620.04907" />
        <path
           style="fill:#ffffff"
           id="path439"
           d="m 629.37524,447.3313 v 1.33379 h -2.6638 v -2.66382 h -1.3337 v 3.99751 h 1.3337 v 1.32874 h 2.6638 v -1.32874 h 1.33243 v -2.66874 h -1.33243 z m -7.99624,1.33379 h -2.66381 v -1.33379 h -1.33367 v 2.66748 h 1.33367 v 1.32874 h 2.66381 v -1.32874 h 1.33245 v -3.99751 H 621.379 Z"
           inkscape:connector-curvature="0" />
        <rect
           style="fill:#23221f"
           id="rect441"
           height="1.3299979"
           width="1.3337479"
           y="446.00192"
           x="618.71521" />
        <path
           style="fill:#4da39c;fill-opacity:1"
           id="path443"
           d="m 632.04146,452.66384 v -3.99749 h -1.33127 v 1.33243 h -1.3337 v 1.33127 h -2.66381 v -1.33127 h -1.33369 v -3.99625 h 1.33369 v -1.33243 h -5.33118 v 1.33243 h 1.3312 v 3.99625 h -1.3312 v 1.33127 h -2.66507 v -1.33127 h -1.33241 v -1.33119 h -1.33255 v 13.32365 h 1.33255 v -1.33367 h 1.33241 v 1.33367 h 1.33252 v 1.33125 h 2.66375 v -2.66368 h 2.66504 v 2.66368 h 2.66497 v -1.33125 h 1.33253 v -1.33367 h 1.3337 v 1.33367 h 1.33128 v 1.33125 h 1.33128 V 452.6651 h -1.33004 z m -17.32127,10.65865 h 1.33002 v -10.65865 h -1.33002 z"
           inkscape:connector-curvature="0" />
      </g>
      <g
         id="g5649">
        <rect
           style="fill:#23221f"
           id="rect283"
           height="1.3324978"
           width="1.3324978"
           y="299.22226"
           x="776.14111" />
        <rect
           style="fill:#23221f"
           id="rect285"
           height="1.3324978"
           width="1.3324978"
           y="299.22226"
           x="777.47235" />
        <rect
           style="fill:#23221f"
           id="rect287"
           height="1.3324978"
           width="1.3324978"
           y="299.22226"
           x="769.47888" />
        <rect
           style="fill:#23221f"
           id="rect289"
           height="1.3324978"
           width="1.3337479"
           y="299.22226"
           x="768.14526" />
        <rect
           style="fill:#23221f"
           id="rect291"
           height="1.3324978"
           width="1.3324978"
           y="297.89182"
           x="776.14111" />
        <rect
           style="fill:#23221f"
           id="rect293"
           height="1.3324978"
           width="1.3324978"
           y="297.89182"
           x="777.47235" />
        <rect
           style="fill:#23221f"
           id="rect295"
           height="1.3324978"
           width="1.3324978"
           y="297.89182"
           x="769.47888" />
        <path
           style="fill:#ffffff"
           id="path297"
           d="m 778.80498,299.2228 v 1.33255 h -2.66373 v -2.66378 h -1.33378 v 3.99873 h 1.33378 v 1.33125 h 2.66373 v -1.33125 h 1.33252 v -2.6675 z m -7.99625,1.33255 h -2.66496 v -1.33255 h -1.33128 v 2.66624 h 1.33128 v 1.33127 h 2.66496 v -1.33127 h 1.33378 v -3.99747 h -1.33378 z"
           inkscape:connector-curvature="0" />
        <rect
           style="fill:#23221f"
           id="rect299"
           height="1.3324978"
           width="1.3337479"
           y="297.89182"
           x="768.14526" />
        <polygon
           transform="matrix(1.2499978,0,0,1.2499978,0,-4.3059132e-4)"
           style="fill:#e18603;fill-opacity:1"
           id="polygon301"
           points="619.847,241.512 619.847,238.313 620.914,238.313 620.914,237.248 616.648,237.248 616.648,238.313 617.716,238.313 617.716,241.512 616.648,241.512 616.648,242.577 614.517,242.577 614.517,241.512 613.45,241.512 613.45,240.445 612.385,240.445 612.385,243.643 611.319,243.643 611.319,252.171 612.385,252.171 612.385,251.106 613.45,251.106 613.45,250.039 614.517,250.039 614.517,251.106 615.584,251.106 615.584,252.171 617.716,252.171 617.716,250.039 619.847,250.039 619.847,252.171 621.979,252.171 621.979,251.106 623.046,251.106 623.046,250.039 624.11,250.039 624.11,251.106 625.177,251.106 625.177,252.171 626.243,252.171 626.243,243.643 625.177,243.643 625.177,240.445 624.11,240.445 624.11,241.512 623.046,241.512 623.046,242.577 620.914,242.577 620.914,241.512 " />
      </g>
      <g
         id="g5715">
        <rect
           style="fill:#23221f"
           id="rect263"
           height="1.3324978"
           width="1.3324978"
           y="66.637253"
           x="706.70502" />
        <rect
           style="fill:#23221f"
           id="rect265"
           height="1.3324978"
           width="1.3337479"
           y="66.637253"
           x="705.37012" />
        <rect
           style="fill:#23221f"
           id="rect267"
           height="1.3324978"
           width="1.3324978"
           y="66.637253"
           x="713.36755" />
        <rect
           style="fill:#23221f"
           id="rect269"
           height="1.3324978"
           width="1.3337479"
           y="66.637253"
           x="714.70154" />
        <rect
           style="fill:#23221f"
           id="rect271"
           height="1.331248"
           width="1.3324978"
           y="65.30674"
           x="706.70502" />
        <rect
           style="fill:#23221f"
           id="rect273"
           height="1.331248"
           width="1.3337479"
           y="65.30674"
           x="705.37012" />
        <rect
           style="fill:#23221f"
           id="rect275"
           height="1.331248"
           width="1.3324978"
           y="65.30674"
           x="713.36755" />
        <rect
           style="fill:#23221f"
           id="rect277"
           height="1.331248"
           width="1.3337479"
           y="65.30674"
           x="714.70154" />
        <path
           style="fill:#ffffff"
           id="path279"
           d="m 717.36511,63.973184 v -1.33375 h -2.66381 v 1.33375 h -1.33369 v 1.332547 h 2.66621 v 2.664921 h -1.33127 v 1.332547 h 2.66381 v -1.332547 h 1.33242 v -3.997468 z m -7.99622,-1.33375 h -2.66383 v 1.33375 h -1.33366 v 1.332547 h 2.66744 v 2.664921 h -1.33253 v 1.332547 h 2.66383 v -1.332547 h 1.33367 v -3.997468 h -1.33367 v -1.33375 z"
           inkscape:connector-curvature="0" />
        <path
           style="fill:#e470a5;fill-opacity:1"
           id="path281"
           d="m 721.36259,62.639434 h -1.33127 v -1.328716 h -1.33127 v -1.335027 h -2.66497 v -1.332473 h -5.33251 v 1.332473 h -2.66373 v 1.335027 h -1.33253 v 1.328716 h 2.66509 v 1.33375 h 1.33117 v 3.997468 h -1.33117 v 1.332547 h -2.66509 v -1.332547 h -1.33239 v -1.332473 h -1.33383 V 77.30069 h 1.33383 v -1.336317 h 1.33239 v -1.331245 h 1.33253 v 1.331245 h 1.3313 v 1.336317 h 2.66619 v -2.667562 h 2.66497 v 2.667562 h 2.66381 v -1.336317 h 1.33367 v -1.331245 h 1.3313 v 1.331245 h 1.33127 v 1.336317 h 1.3337 V 66.638179 h -1.3337 m -2.66257,1.332473 h -1.33367 v 1.332547 h -2.66381 v -1.332547 h -1.33241 v -3.997468 h 1.33241 v -1.33375 h 2.66381 v 1.33375 h 1.33367 z m -13.32612,-3.997468 h 1.33365 v -1.33375 h -1.33365 z"
           inkscape:connector-curvature="0" />
      </g>
      <g
         id="g4028">
        <rect
           style="fill:#23221f"
           id="rect243"
           height="1.3324978"
           width="1.3337479"
           y="96.737312"
           x="927.88605" />
        <rect
           style="fill:#23221f"
           id="rect245"
           height="1.3324978"
           width="1.331248"
           y="96.737312"
           x="929.21973" />
        <rect
           style="fill:#23221f"
           id="rect247"
           height="1.3324978"
           width="1.331248"
           y="96.737312"
           x="921.22485" />
        <rect
           style="fill:#23221f"
           id="rect249"
           height="1.3324978"
           width="1.3337479"
           y="96.737312"
           x="919.89111" />
        <rect
           style="fill:#23221f"
           id="rect251"
           height="1.3324978"
           width="1.3337479"
           y="95.404243"
           x="927.88605" />
        <rect
           style="fill:#23221f"
           id="rect253"
           height="1.3324978"
           width="1.331248"
           y="95.404243"
           x="929.21973" />
        <rect
           style="fill:#23221f"
           id="rect255"
           height="1.3324978"
           width="1.331248"
           y="95.404243"
           x="921.22485" />
        <rect
           style="fill:#23221f"
           id="rect257"
           height="1.3324978"
           width="1.3337479"
           y="95.404243"
           x="919.89111" />
        <path
           style="fill:#ffffff"
           id="path259"
           d="m 930.55103,95.403196 v -1.332523 h -1.33132 V 92.738188 H 926.556 v 1.332485 h -1.33504 v 3.998746 h 1.33504 v 1.33127 h 2.66371 v -1.33127 h -1.33247 v -2.666223 z m -9.32633,-2.665008 h -2.66493 v 1.332485 h -1.33254 v 3.998746 h 1.33254 v 1.33127 h 2.66493 v -1.33127 h -1.33371 v -2.666223 h 2.66627 v -1.332523 h -1.3313 v -1.332485 z"
           inkscape:connector-curvature="0" />
        <path
           style="display:inline;fill:#da001b"
           id="path261"
           d="m 930.55103,96.736933 v 1.332486 h -1.33132 v 1.33127 H 926.556 v -1.33127 h -1.33504 v -3.998746 h 1.33504 v -1.332485 h 2.66371 V 91.40693 h -1.33373 v -1.33251 h -2.66502 v -1.332473 h -5.32997 v 1.332473 h -2.66376 v 1.33251 H 915.896 v 1.331258 h -1.33246 v 3.998745 h -1.33252 V 107.3969 h 1.33252 v -1.33376 h 1.33246 v -1.33254 h 1.33123 v 1.33254 h 1.33254 v 1.33376 h 2.66493 v -2.6663 h 2.66503 v 2.6663 h 2.66627 v -1.33376 h 1.32873 v -1.33254 h 1.33373 v 1.33254 h 1.33257 v 1.33376 h 1.3337 V 96.736933 Z m -7.99377,1.332486 h -1.3313 v 1.33127 h -2.66493 v -1.33127 h -1.33253 v -3.998746 h 1.33253 v -1.332485 h 2.66493 v 1.332485 h 1.3313 z m 7.99377,-5.331231 h -1.33132 v 1.332485 h 1.33132 z"
           inkscape:connector-curvature="0" />
      </g>
      <g
         id="g5749">
        <rect
           style="fill:#23221f"
           id="rect303"
           height="1.3324978"
           width="1.331248"
           y="359.82516"
           x="866.37335" />
        <rect
           style="fill:#23221f"
           id="rect305"
           height="1.3324978"
           width="1.3349979"
           y="359.82516"
           x="867.70367" />
        <rect
           style="fill:#23221f"
           id="rect307"
           height="1.3324978"
           width="1.331248"
           y="359.82516"
           x="859.71222" />
        <rect
           style="fill:#23221f"
           id="rect309"
           height="1.3324978"
           width="1.3324978"
           y="359.82516"
           x="858.3772" />
        <rect
           style="fill:#23221f"
           id="rect311"
           height="1.3324978"
           width="1.331248"
           y="358.49222"
           x="866.37335" />
        <rect
           style="fill:#23221f"
           id="rect313"
           height="1.3324978"
           width="1.3349979"
           y="358.49222"
           x="867.70367" />
        <rect
           style="fill:#23221f"
           id="rect315"
           height="1.3324978"
           width="1.331248"
           y="358.49222"
           x="859.71222" />
        <path
           style="fill:#ffffff"
           id="path317"
           d="m 869.03615,359.82524 v 1.33245 h -2.66259 v -2.6637 h -1.33241 v 3.99749 h 1.33241 v 1.33121 h 2.66383 v -1.33121 h 1.33368 v -2.66624 z m -7.99374,1.33245 h -2.66382 v -1.33245 h -1.33369 v 2.66624 h 1.33369 v 1.33121 h 2.66382 v -1.33121 h 1.33115 v -3.99749 h -1.33115 z"
           inkscape:connector-curvature="0" />
        <rect
           style="fill:#23221f"
           id="rect319"
           height="1.3324978"
           width="1.3324978"
           y="358.49222"
           x="858.3772" />
        <path
           style="fill:#4da39c;fill-opacity:1"
           id="path321"
           d="m 871.70234,365.15518 v -3.99749 h -1.33251 v 1.33505 h -1.33119 v 1.32995 h -2.66632 v -1.32995 h -1.33117 v -3.99999 h 1.33117 v -1.33256 h -5.33117 v 1.33256 h 1.33241 v 3.99999 h -1.33241 v 1.32995 h -2.66384 v -1.32995 h -1.33365 v -1.33505 h -1.33008 v 13.32502 h 1.33008 v -1.33255 h 1.33365 v 1.33255 h 1.33502 v 1.33241 h 2.66123 v -2.66496 h 2.66634 v 2.66496 h 2.6637 v -1.33241 h 1.33379 v -1.33255 h 1.33119 v 1.33255 h 1.33252 v 1.33241 h 1.33126 v -10.65994 z m -17.32126,10.65994 h 1.33125 v -10.65994 h -1.33125 z"
           inkscape:connector-curvature="0" />
      </g>
      <g
         id="g5772">
        <rect
           style="fill:#23221f"
           id="rect323"
           height="1.331248"
           width="1.3337479"
           y="543.07202"
           x="840.32361" />
        <rect
           style="fill:#23221f"
           id="rect325"
           height="1.331248"
           width="1.331248"
           y="543.07202"
           x="841.65729" />
        <rect
           style="fill:#23221f"
           id="rect327"
           height="1.331248"
           width="1.3324978"
           y="543.07202"
           x="833.66241" />
        <rect
           style="fill:#23221f"
           id="rect329"
           height="1.331248"
           width="1.3324978"
           y="543.07202"
           x="832.32965" />
        <rect
           style="fill:#23221f"
           id="rect331"
           height="1.3324978"
           width="1.3337479"
           y="541.73907"
           x="840.32361" />
        <rect
           style="fill:#23221f"
           id="rect333"
           height="1.3324978"
           width="1.331248"
           y="541.73907"
           x="841.65729" />
        <rect
           style="fill:#23221f"
           id="rect335"
           height="1.3324978"
           width="1.3324978"
           y="541.73907"
           x="833.66241" />
        <rect
           style="fill:#23221f"
           id="rect337"
           height="1.3324978"
           width="1.3324978"
           y="541.73907"
           x="832.32965" />
        <path
           style="fill:#ffffff"
           id="path339"
           d="m 842.98988,541.73864 v -1.32997 h -1.33004 v -1.33256 h -2.66622 v 1.33256 h -1.33252 v 3.99498 h 1.33252 v 1.33372 h 2.66622 v -1.33372 h -1.3337 v -2.66501 z m -9.32628,-2.66377 h -2.66493 v 1.33252 h -1.33377 v 3.99502 h 1.33377 v 1.33372 h 2.66493 v -1.33372 h -1.33244 v -2.66502 h 2.665 v -1.33 h -1.33128 v -1.33252 z"
           inkscape:connector-curvature="0" />
        <path
           style="fill:#e18403"
           id="path341"
           d="m 842.98862,543.07235 v 1.33006 h -1.33003 v 1.33248 h -2.66497 v -1.33248 h -1.33252 v -3.99502 h 1.33252 v -1.33128 h 2.66497 v -1.33496 h -1.3337 v -1.32993 h -2.66379 v -1.33258 h -5.3312 v 1.33258 h -2.66376 v 1.32993 h -1.33247 v 1.33496 h -1.33251 v 3.99624 h -1.33127 v 10.66003 h 1.33127 v -1.33497 h 1.33251 v -1.33129 h 1.33247 v 1.33129 h 1.33129 v 1.33497 h 2.66617 v -2.6675 h 2.6638 v 2.6675 h 2.66622 v -1.33497 h 1.33127 v -1.33129 h 1.33245 v 1.33129 h 1.33128 v 1.33497 h 1.33376 v -10.66003 z m -7.99373,1.3313 h -1.33129 v 1.33248 h -2.66617 v -1.33248 h -1.33129 v -3.99498 h 1.33129 v -1.33129 h 2.66617 v 1.33129 h 1.33129 z m 7.99373,-5.32754 h -1.33003 v 1.33128 h 1.33003 z"
           inkscape:connector-curvature="0" />
      </g>
    </g>
    <path
       d="M 49.305883,166.60031 V 107.5829 H 72.980841 V 95.573945 m 3.67e-4,130.215975 -0.07836,11.83724 H 179.5214 V 24.410133 L 37.468727,24.547604 37.46832,237.62716 H 61.14377 V 225.78992 M 49.305897,107.58311 v 0 m 94.702363,82.69315 h 35.51266 -23.67495 v 23.67496 m -11.83771,11.8387 h 23.67493 V 202.1145 M 179.52143,48.22305 h -23.67546 m -11.83769,11.873302 23.67504,-0.03492 m -11.83786,11.837529 23.67546,-3.7e-4 M 167.68319,36.38541 h -23.67493 v 47.350898 h 23.67493 m 11.83824,11.838216 h -11.83822 m -35.51319,11.837736 h 35.51368 v 47.35083 h -11.83824 m 1e-4,-47.35065 V 83.906999 M 132.16995,24.547604 h 23.67546 M 144.00823,142.92545 h 11.83779 m 11.83724,-11.83802 h -11.83775 m 23.67584,35.51288 h -35.51316 v -35.51318 -11.83772 h 11.83771 m 11.83724,59.18911 H 132.16995 V 24.547604 M 61.144178,142.92545 v 23.67496 m -11.838295,-35.51277 23.597038,-3.9e-4 0.07793,35.51318 H 61.144136 v 11.83772 H 49.305912 v 47.35177 M 85.034457,119.18748 H 61.143686 M 37.468671,48.308411 h 11.83772 V 36.470683 H 61.144108 M 85.034445,24.548099 V 36.385324 H 73.240391 V 48.22305 H 61.143617 V 60.060775 H 49.305883 V 83.906939 H 85.034445 V 71.8985 l 12.002493,-7.44e-4 V 60.096755 l 11.458072,-0.03573 V 48.223249 202.11469 M 49.305842,95.575391 H 95.897549 M 85.034445,107.41218 84.819067,178.43852 H 72.980841 v 11.83824 H 61.143617 v 35.51316 -11.83821 m 47.350893,11.83855 v -11.83884 m -23.675443,-2e-4 h 11.838212 v -11.83724 h 23.675461 v 11.83724 h 11.83672 M 96.656785,83.906939 V 190.27626 H 84.819067 v 11.83772 H 72.981333 v 23.67594 h 71.026357 m 3.7e-4,0 V 202.1145 H 132.16983 V 190.27626 H 120.33261 L 121.11773,36.384826 H 97.037305 V 48.22305 H 85.034345 V 60.060775 L 73.08943,60.097035 72.980687,71.898033 H 61.143462"
       style="fill:none;stroke:#000080;stroke-width:1.70818949;stroke-miterlimit:2"
       id="polyline241"
       inkscape:connector-curvature="0" />
    <text
       id="text17"
       x="20.501566"
       y="271.91605"
       style="font-size:5.95533943px;line-height:0%;fill:#000000;stroke-width:0.39702329">
      <tspan
         x="20.501566"
         y="271.91605"
         font-size="63"
         id="tspan19"
         style="font-style:normal;font-variant:normal;font-weight:normal;font-stretch:normal;font-size:31.26552963px;font-family:DroidLogo;-inkscape-font-specification:DroidLogo;fill:#000000;stroke-width:0.39702329">DIE ERSTE</tspan>
    </text>
    <text
       font-size="18"
       id="text35"
       style="font-style:normal;font-variant:normal;font-weight:normal;font-stretch:normal;font-size:8.93301105px;line-height:0%;font-family:DroidLogo;-inkscape-font-specification:DroidLogo;fill:#000080;stroke-width:0.39702329"
       x="11.427579"
       y="16.604204">Score: 0/300</text>
    <text
       font-size="18"
       id="text37"
       style="font-style:normal;font-variant:normal;font-weight:normal;font-stretch:normal;font-size:8.93301105px;line-height:0%;font-family:DroidLogo;-inkscape-font-specification:DroidLogo;fill:#000080;stroke-width:0.39702329"
       x="198.51082"
       y="16.604204">
      <tspan
         style="text-align:end;text-anchor:end"
         id="tspan135">4/2019</tspan>
    </text>
    <text
       id="text39"
       x="52.969608"
       y="281.79224"
       style="font-size:5.95533943px;line-height:0%;fill:#000080;stroke-width:0.39702329">
      <tspan
         x="52.969608"
         y="281.79224"
         font-size="11"
         id="tspan41"
         style="font-style:normal;font-variant:normal;font-weight:normal;font-stretch:normal;font-size:5.45906162px;font-family:DroidLogo;-inkscape-font-specification:DroidLogo;fill:#000080;stroke-width:0.39702329">Erstsemesterzeitung der Fachgruppe Informatik</tspan>
    </text>
  </g>
</svg>
