<?xml version="1.0" encoding="UTF-8" standalone="no"?>
<svg
   xmlns:dc="http://purl.org/dc/elements/1.1/"
   xmlns:cc="http://creativecommons.org/ns#"
   xmlns:rdf="http://www.w3.org/1999/02/22-rdf-syntax-ns#"
   xmlns:svg="http://www.w3.org/2000/svg"
   xmlns="http://www.w3.org/2000/svg"
   xmlns:sodipodi="http://sodipodi.sourceforge.net/DTD/sodipodi-0.dtd"
   xmlns:inkscape="http://www.inkscape.org/namespaces/inkscape"
   version="1.1"
   width="256"
   height="256"
   id="svg1114"
   sodipodi:docname="ma-inf.svg"
   inkscape:version="0.92.2 5c3e80d, 2017-08-06">
  <metadata
     id="metadata1120">
    <rdf:RDF>
      <cc:Work
         rdf:about="">
        <dc:format>image/svg+xml</dc:format>
        <dc:type
           rdf:resource="http://purl.org/dc/dcmitype/StillImage" />
      </cc:Work>
    </rdf:RDF>
  </metadata>
  <defs
     id="defs1118" />
  <sodipodi:namedview
     pagecolor="#ffffff"
     bordercolor="#666666"
     borderopacity="1"
     objecttolerance="10"
     gridtolerance="10"
     guidetolerance="10"
     inkscape:pageopacity="0"
     inkscape:pageshadow="2"
     inkscape:window-width="1393"
     inkscape:window-height="855"
     id="namedview1116"
     showgrid="false"
     inkscape:zoom="2.6074563"
     inkscape:cx="79.995589"
     inkscape:cy="79.507502"
     inkscape:window-x="59"
     inkscape:window-y="104"
     inkscape:window-maximized="0"
     inkscape:current-layer="svg1114" />
  <path
     style="fill:#000000;shape-rendering:crispEdges"
     d="m 29.4086,32.846212 v 6.242188 6.244141 6.24414 6.244141 6.24414 6.244141 6.244141 h 6.2422 6.2441 6.2441 6.2442 6.2441 6.2442 6.2441 V 70.309103 64.064962 57.820822 51.576681 45.332541 39.0884 32.846212 H 66.8715 60.6273 54.3832 48.139 41.8949 35.6508 Z m 49.9511,0 V 39.0884 h 6.2422 v -6.242188 z m 18.7305,0 V 39.0884 h 6.2441 v 6.244141 h 6.2442 V 39.0884 h 6.2441 v -6.242188 h -6.2441 -6.2442 z m 12.4883,12.486329 v 6.24414 h -6.2442 v -6.24414 H 98.0902 V 39.0884 h -6.2441 v 6.244141 h -6.2442 -6.2422 v 6.24414 6.244141 6.24414 6.244141 6.244141 h 6.2422 v -6.244141 -6.244141 -6.24414 h 6.2442 6.2441 v 6.24414 h 6.2441 v -6.24414 h 6.2442 6.2441 v -6.244141 -6.24414 z m -6.2442,18.732421 v 6.244141 6.244141 h 6.2442 v -6.244141 h 6.2441 v -6.244141 h -6.2441 z m 12.4883,6.244141 v 6.244141 h -6.2441 v 6.24414 h -6.2442 v 6.242188 6.24414 6.244138 h 6.2442 v 6.24414 h 6.2441 6.2442 v -6.24414 h -6.2442 v -6.244138 h -6.2441 v -6.24414 h 6.2441 v -6.242188 h 6.2442 v -6.24414 -6.244141 z m 0,18.730469 v 6.24414 h 6.2442 v -6.24414 z m -6.2441,18.732418 h -6.2442 v 6.24414 h 6.2442 z m 0,6.24414 v 6.24414 h 6.2441 6.2442 v -6.24414 h -6.2442 z m 12.4883,6.24414 v 6.24415 h -6.2442 -6.2441 v 6.24414 h 6.2441 v 6.24218 h 6.2442 v -6.24218 h 6.2441 6.2422 v -6.24414 h 6.2441 v 6.24414 6.24218 h 6.2442 6.2441 v -6.24218 h -6.2441 v -6.24414 h 6.2441 v 6.24414 h 6.2442 v 6.24218 h 6.2441 v -6.24218 -6.24414 h -6.2441 v -6.24415 -6.24414 h -6.2442 v 6.24414 h -6.2441 v -6.24414 h 6.2441 v -6.24414 h -6.2441 v -6.24414 -6.244138 h 6.2441 v -6.24414 h -6.2441 v -6.242188 -6.24414 -6.244141 h -6.2442 v 6.244141 6.24414 6.242188 6.24414 h -6.2441 v 6.244138 6.24414 h 6.2441 v 6.24414 6.24414 h -6.2441 -6.2422 z m 12.4863,-24.976558 v -6.24414 -6.242188 -6.24414 -6.244141 h -6.2422 v 6.244141 6.24414 6.242188 6.24414 z m 18.7324,-6.24414 h 6.2442 6.2441 v -6.242188 h -6.2441 -6.2442 z m 12.4883,0 v 6.24414 h -6.2441 v 6.244138 h -6.2442 v 6.24414 h 6.2442 v 6.24414 h 6.2441 v -6.24414 -6.24414 h 6.2441 v -6.244138 -6.24414 z m 6.2441,12.488278 v 6.24414 h 6.2442 v -6.24414 z m 6.2442,0 h 6.2422 v 6.24414 h 6.2441 6.2442 v 6.24414 h -6.2442 v 6.24414 h 6.2442 v 6.24415 h -6.2442 v 6.24414 h -6.2441 v 6.24218 h -6.2422 v 6.24414 h 6.2422 v 6.24415 h -6.2422 -6.2442 -6.2441 v 6.24414 h 6.2441 v 6.24414 6.24414 h 6.2442 v -6.24414 h 6.2422 6.2441 6.2442 v -6.24414 h -6.2442 v -6.24414 -6.24415 h 6.2442 v 6.24415 h 6.2441 v -6.24415 -6.24414 h -6.2441 v -6.24218 h 6.2441 v -6.24414 -6.24415 h 6.2441 v -6.24414 h -6.2441 v -6.24414 h 6.2441 v 6.24414 h 6.2442 v -6.24414 h 6.2441 v -6.24414 h -6.2441 -6.2442 -6.2441 v -6.244138 h -6.2441 -6.2442 v -6.24414 -6.242188 h -6.2441 v 6.242188 6.24414 h -6.2422 z m 6.2422,-18.730466 v -6.24414 -6.244141 -6.244141 h -6.2422 v 6.244141 6.244141 h -6.2442 v 6.24414 h 6.2442 z m -12.4864,-6.24414 v -6.244141 -6.244141 h -6.2441 v 6.244141 6.244141 z m -6.2441,-12.488282 v -6.24414 h -6.2441 v 6.24414 z m 0,-6.24414 h 6.2441 v -6.244141 h -6.2441 z m 0,-6.244141 V 45.332541 39.0884 h 6.2441 6.2442 6.2422 v -6.242188 h -6.2422 -6.2442 -6.2441 -6.2441 V 39.0884 h -6.2442 -6.2441 v 6.244141 h 6.2441 6.2442 v 6.24414 z m -18.7324,-6.24414 h -6.2442 V 39.0884 h -6.2441 v 6.244141 6.24414 h 6.2441 v 6.244141 h 6.2442 v -6.244141 z m 0,12.488281 v 6.24414 h 6.2441 v -6.24414 z m -6.2442,0 h -6.2441 v 6.24414 h 6.2441 z m -6.2441,0 v -6.244141 h -6.2422 v 6.244141 z M 141.7972,39.0884 h 6.2442 v -6.242188 h -6.2442 z m 62.4395,56.195312 h 6.2441 v -6.24414 h 6.2442 v 6.24414 h 6.2441 v -6.24414 -6.242188 h -6.2441 -6.2442 -6.2441 -6.2441 v 6.242188 h 6.2441 z m 18.7324,12.488278 v 6.24414 h -6.2441 v 6.24414 h 6.2441 6.2442 6.2421 v -6.24414 h -6.2421 v -6.24414 z m -18.7324,24.97657 v 6.24218 h 6.2441 v -6.24218 z m 6.2441,0 h 6.2442 v 6.24218 h 6.2441 v -6.24218 h 6.2442 6.2421 v -6.24414 h -6.2421 -6.2442 -6.2441 -6.2442 z m -31.2187,37.46289 v 6.24414 6.24414 6.24219 h -6.2442 -6.2441 v 6.24414 h 6.2441 v 6.24414 h 6.2442 v 6.24414 h -6.2442 v 6.24414 h -6.2441 -6.2441 v -6.24414 -6.24414 h -6.2442 -6.2441 v -6.24414 h -6.2442 v -6.24414 -6.24219 -6.24414 h -6.2441 v -6.24414 h -6.2422 v -6.24414 h -6.2441 v -6.24414 h -6.2442 v 6.24414 6.24414 6.24414 h 6.2442 6.2441 v 6.24414 6.24219 h -6.2441 -6.2442 v 6.24414 h -6.2441 v 6.24414 h 6.2441 6.2442 v 6.24414 h 6.2441 v 6.24414 h 6.2422 v -6.24414 h 6.2441 v 6.24414 h 6.2442 v 6.24414 h -6.2442 v -6.24414 h -6.2441 v 6.24414 6.24414 h 6.2441 v 6.24414 h 6.2442 6.2441 v -6.24414 -6.24414 h 6.2442 6.2441 6.2441 v 6.24414 h -6.2441 v 6.24414 h 6.2441 6.2442 v 6.24219 h 6.2422 6.2441 v -6.24219 h -6.2441 v -6.24414 h -6.2422 v -6.24414 h 6.2422 v -6.24414 h 6.2441 6.2442 v 6.24414 h -6.2442 -6.2441 v 6.24414 h 6.2441 v 6.24414 h 6.2442 v 6.24219 h 6.2441 6.2441 6.2442 v -6.24219 h -6.2442 v -6.24414 h -6.2441 v -6.24414 h 6.2441 v -6.24414 h 6.2442 v -6.24414 h -6.2442 v -6.24414 -6.24414 h 6.2442 v 6.24414 6.24414 h 6.2441 v -6.24414 h 6.2442 v 6.24414 h 6.2421 v -6.24414 -6.24414 -6.24414 -6.24219 h -6.2421 v 6.24219 6.24414 h -6.2442 v -6.24414 -6.24219 -6.24414 h -6.2441 -6.2442 v 6.24414 h 6.2442 v 6.24219 h -6.2442 v -6.24219 h -6.2441 v -6.24414 h -6.2441 v -6.24414 h -6.2442 -6.2441 z m 24.9746,6.24414 h 6.2441 v -6.24414 h 6.2442 v -6.24414 h -6.2442 v -6.24414 h -6.2441 v 6.24414 6.24414 z m 12.4883,-12.48828 h 6.2441 v -6.24414 h -6.2441 z m 6.2441,0 v 6.24414 h 6.2442 v -6.24414 z m 6.2442,6.24414 v 6.24414 h 6.2421 v -6.24414 z m 0,37.46289 h -6.2442 v 6.24414 6.24414 6.24414 h 6.2442 v -6.24414 -6.24414 z m 0,18.73242 v 6.24414 h 6.2421 v -6.24414 z m -18.7325,-6.24414 v 6.24414 h 6.2442 v -6.24414 z m -43.707,12.48828 h -6.2441 -6.2442 v 6.24219 h 6.2442 6.2441 z m -24.9766,0 h -6.2441 -6.2422 v 6.24219 h 6.2422 6.2441 z m -12.4863,-18.73242 h -6.2441 v 6.24414 6.24414 h 6.2441 v -6.24414 z m -6.2441,12.48828 h -6.2442 v -6.24414 -6.24414 h -6.2441 v -6.24414 h -6.2442 -6.2441 -6.2441 v 6.24414 h 6.2441 v 6.24414 h -6.2441 v -6.24414 h -6.2442 v -6.24414 h 6.2442 v -6.24414 -6.24414 h -6.2442 -6.2422 v 6.24414 6.24414 6.24414 6.24414 6.24414 h 6.2422 6.2442 v 6.24414 h 6.2441 v -6.24414 h 6.2441 v -6.24414 h 6.2442 v 6.24414 h -6.2442 v 6.24414 h -6.2441 v 6.24219 h 6.2441 6.2442 6.2441 v -6.24219 h 6.2442 z m -31.2207,6.24414 h -6.2442 v 6.24219 h 6.2442 z m 0,-37.46484 h 6.2441 v -6.24414 -6.24219 h -6.2441 v 6.24219 z m 0,-12.48633 v -6.24414 h -6.2442 v 6.24414 z m 0,-6.24414 h 6.2441 v -6.24414 h -6.2441 z m 6.2441,0 v 6.24414 h 6.2441 6.2442 6.2441 v -6.24414 h -6.2441 v -6.24414 -6.24414 -6.24414 -6.24414 h -6.2442 v -6.24415 -6.24414 h 6.2442 v -6.24218 h -6.2442 -6.2441 v 6.24218 h -6.2441 v -6.24218 h -6.2442 v 6.24218 h -6.2422 v 6.24414 h 6.2422 v 6.24415 h -6.2422 -6.2441 v 6.24414 h -6.2441 v 6.24414 h 6.2441 v 6.24414 h -6.2441 v -6.24414 h -6.2442 v -6.24414 h -6.2441 v 6.24414 H 48.139 41.8949 v 6.24414 6.24414 h 6.2441 v -6.24414 h 6.2442 6.2441 v 6.24414 h 6.2442 6.2441 v 6.24414 h -6.2441 v 6.24219 h 6.2441 6.2441 v -6.24219 -6.24414 -6.24414 -6.24414 h 6.2422 6.2442 v -6.24414 -6.24414 -6.24415 h 6.2441 v 6.24415 6.24414 6.24414 h 6.2441 v 6.24414 6.24414 z m -37.4629,0 h -6.2441 v 6.24414 h 6.2441 z m -6.2441,6.24414 H 48.139 v 6.24219 h 6.2442 z M 41.8949,163.96731 v -6.24414 h -6.2441 v -6.24414 h 6.2441 v -6.24415 h -6.2441 -6.2422 v 6.24415 6.24414 6.24414 6.24414 6.24414 6.24414 h 6.2422 v -6.24414 -6.24414 -6.24414 z m -6.2441,18.73242 v 6.24219 h 6.2441 v -6.24219 z m 6.2441,-31.2207 v 6.24414 h 6.2441 v -6.24414 z m 6.2441,0 h 6.2442 v -6.24415 H 48.139 Z m 12.4883,6.24414 h 6.2442 v -6.24414 h 6.2441 v -6.24415 h -6.2441 v -6.24414 h -6.2442 v 6.24414 6.24415 z m 0,-18.73243 v -6.24218 -6.24414 h 6.2442 6.2441 6.2441 v -6.24415 h -6.2441 -6.2441 -6.2442 -6.2441 v 6.24415 H 48.139 v -6.24415 h -6.2441 v 6.24415 h -6.2441 v 6.24414 h 6.2441 v 6.24218 h 6.2441 v -6.24218 h 6.2442 v 6.24218 z m -24.9765,-6.24218 h -6.2422 v 6.24218 h 6.2422 z m 43.7089,-12.48829 h 6.2422 6.2442 v 6.24415 6.24414 h 6.2441 v -6.24414 -6.24415 h 6.2441 v -6.24414 h -6.2441 v -6.24414 h -6.2441 v -6.24414 -6.244138 -6.24414 H 85.6019 79.3597 V 82.797384 H 73.1156 66.8715 60.6273 54.3832 48.139 41.8949 v 6.242188 h -6.2441 -6.2422 v 6.24414 h 6.2422 v 6.244138 6.24414 h -6.2422 v 6.24414 h 6.2422 6.2441 6.2441 6.2442 6.2441 v -6.24414 -6.24414 H 54.3832 V 95.283712 H 48.139 v 6.244138 6.24414 h -6.2441 v -6.24414 -6.244138 h 6.2441 v -6.24414 h 6.2442 6.2441 6.2442 6.2441 v 6.24414 h 6.2441 v 6.244138 h 6.2422 v 6.24414 h -6.2422 v 6.24414 z M 73.1156,95.283712 h -6.2441 -6.2442 v 6.244138 h 6.2442 6.2441 z m 31.2187,24.976558 v 6.24415 h 6.2442 v -6.24415 z m -37.4628,18.73047 h 6.2441 6.2441 v -6.24218 h -6.2441 -6.2441 z m 43.707,0 v 6.24414 6.24415 h 6.2441 6.2442 6.2441 v -6.24415 h -6.2441 -6.2442 v -6.24414 z m 18.7324,6.24414 h 6.2422 v -6.24414 h -6.2422 z m -18.7324,49.95118 v -6.24414 h -6.2442 v 6.24414 z m 24.9746,-24.97461 h 6.2441 6.2442 v 6.24414 6.24414 h 6.2441 v -6.24414 -6.24414 h 6.2442 v 6.24414 6.24414 h 6.2441 v -6.24414 -6.24414 -6.24414 -6.24414 h -6.2441 v 6.24414 h -6.2442 v -6.24414 h -6.2441 -6.2442 v -6.24414 h -6.2441 v 6.24414 6.24414 z m 6.2441,-18.73242 h 6.2442 v -6.24415 h -6.2442 z m 18.7325,31.2207 h -6.2442 v 6.24219 h -6.2441 v 6.24414 h 6.2441 6.2442 v -6.24414 z m 0,12.48633 v 6.24414 h 6.2441 v -6.24414 z m 18.7324,-56.19532 v -6.24218 h -6.2442 v 6.24218 z m -6.2442,0 h -6.2441 v 6.24414 h 6.2441 z m 18.7305,-12.48632 v -6.24415 h -6.2441 v 6.24415 z m -24.9746,-12.48829 v 6.24414 h 6.2441 6.2442 v -6.24414 h -6.2442 z M 104.3343,82.797384 v -6.24414 h -6.2441 v -6.244141 -6.244141 h -6.2441 v 6.244141 6.244141 6.24414 h 6.2441 z m 18.7325,-49.951172 v 6.242188 6.244141 h 6.2441 V 39.0884 32.846212 Z m 68.6816,0 v 6.242188 6.244141 6.24414 6.244141 6.24414 6.244141 6.244141 h 6.2442 6.2441 6.2441 6.2442 6.2441 6.2442 6.2421 v -6.244141 -6.244141 -6.24414 -6.244141 -6.24414 -6.244141 -6.242188 h -6.2421 -6.2442 -6.2441 -6.2442 -6.2441 -6.2441 z M 35.6508,39.0884 h 6.2441 6.2441 6.2442 6.2441 6.2442 v 6.244141 6.24414 6.244141 6.24414 6.244141 H 60.6273 54.3832 48.139 41.8949 35.6508 v -6.244141 -6.24414 -6.244141 -6.24414 z m 162.3418,0 h 6.2441 6.2441 6.2442 6.2441 6.2442 v 6.244141 6.24414 6.244141 6.24414 6.244141 h -6.2442 -6.2441 -6.2442 -6.2441 -6.2441 v -6.244141 -6.24414 -6.244141 -6.24414 z M 41.8949,45.332541 v 6.24414 6.244141 6.24414 h 6.2441 6.2442 6.2441 v -6.24414 -6.244141 -6.24414 H 54.3832 48.139 Z m 162.3418,0 v 6.24414 6.244141 6.24414 h 6.2441 6.2442 6.2441 v -6.24414 -6.244141 -6.24414 h -6.2441 -6.2442 z m -24.9746,6.24414 v 6.244141 h 6.2422 v -6.244141 z m -24.9766,18.732422 v 6.244141 h 6.2442 v -6.244141 z m 74.9278,12.488281 v 6.242188 6.24414 6.244138 h 6.2421 v -6.244138 -6.24414 -6.242188 z M 66.8715,107.77199 v 6.24414 h 6.2441 v -6.24414 z m 162.3418,31.21875 v 6.24414 h 6.2421 v -6.24414 z m -74.9278,6.24414 v 6.24415 h 6.2442 v -6.24415 z m 56.1953,0 v 6.24415 h 6.2442 v -6.24415 z m -24.9765,43.70704 h 6.2441 6.2442 6.2441 v 6.24414 6.24414 6.24414 h -6.2441 -6.2442 -6.2441 v -6.24414 -6.24414 z m -156.0957,6.24414 v 6.24414 6.24414 6.24414 6.24414 6.24414 6.24414 6.24219 h 6.2422 6.2441 6.2441 6.2442 6.2441 6.2442 6.2441 v -6.24219 -6.24414 -6.24414 -6.24414 -6.24414 -6.24414 -6.24414 H 66.8715 60.6273 54.3832 48.139 41.8949 35.6508 Z m 99.9023,0 h 6.2422 v 6.24414 h -6.2422 z m 62.4375,0 v 6.24414 h 6.2442 v -6.24414 z M 35.6508,201.4302 h 6.2441 6.2441 6.2442 6.2441 6.2442 v 6.24414 6.24414 6.24414 6.24414 6.24414 H 60.6273 54.3832 48.139 41.8949 35.6508 v -6.24414 -6.24414 -6.24414 -6.24414 z m 6.2441,6.24414 v 6.24414 6.24414 6.24414 h 6.2441 6.2442 6.2441 v -6.24414 -6.24414 -6.24414 H 54.3832 48.139 Z"
     id="rect4"
     inkscape:connector-curvature="0" />
</svg>
