<?xml version="1.0" encoding="UTF-8" standalone="no"?>
<svg
   xmlns:dc="http://purl.org/dc/elements/1.1/"
   xmlns:cc="http://creativecommons.org/ns#"
   xmlns:rdf="http://www.w3.org/1999/02/22-rdf-syntax-ns#"
   xmlns:svg="http://www.w3.org/2000/svg"
   xmlns="http://www.w3.org/2000/svg"
   xmlns:sodipodi="http://sodipodi.sourceforge.net/DTD/sodipodi-0.dtd"
   xmlns:inkscape="http://www.inkscape.org/namespaces/inkscape"
   version="1.1"
   width="256"
   height="256"
   id="svg1166"
   sodipodi:docname="mensa.svg"
   inkscape:version="0.92.2 5c3e80d, 2017-08-06">
  <metadata
     id="metadata1172">
    <rdf:RDF>
      <cc:Work
         rdf:about="">
        <dc:format>image/svg+xml</dc:format>
        <dc:type
           rdf:resource="http://purl.org/dc/dcmitype/StillImage" />
      </cc:Work>
    </rdf:RDF>
  </metadata>
  <defs
     id="defs1170" />
  <sodipodi:namedview
     pagecolor="#ffffff"
     bordercolor="#666666"
     borderopacity="1"
     objecttolerance="10"
     gridtolerance="10"
     guidetolerance="10"
     inkscape:pageopacity="0"
     inkscape:pageshadow="2"
     inkscape:window-width="966"
     inkscape:window-height="619"
     id="namedview1168"
     showgrid="false"
     inkscape:zoom="0.921875"
     inkscape:cx="-13.016949"
     inkscape:cy="128"
     inkscape:window-x="257"
     inkscape:window-y="0"
     inkscape:window-maximized="0"
     inkscape:current-layer="svg1166" />
  <path
     style="fill:#000000;shape-rendering:crispEdges;"
     d="M 24.976562 24.976562 L 24.976562 31.21875 L 24.976562 37.462891 L 24.976562 43.707031 L 24.976562 49.951172 L 24.976562 56.195312 L 24.976562 62.439453 L 24.976562 68.683594 L 31.21875 68.683594 L 37.462891 68.683594 L 43.707031 68.683594 L 49.951172 68.683594 L 56.195312 68.683594 L 62.439453 68.683594 L 68.683594 68.683594 L 68.683594 62.439453 L 68.683594 56.195312 L 68.683594 49.951172 L 68.683594 43.707031 L 68.683594 37.462891 L 68.683594 31.21875 L 68.683594 24.976562 L 62.439453 24.976562 L 56.195312 24.976562 L 49.951172 24.976562 L 43.707031 24.976562 L 37.462891 24.976562 L 31.21875 24.976562 L 24.976562 24.976562 z M 74.927734 24.976562 L 74.927734 31.21875 L 81.169922 31.21875 L 81.169922 24.976562 L 74.927734 24.976562 z M 81.169922 31.21875 L 81.169922 37.462891 L 87.414062 37.462891 L 87.414062 31.21875 L 81.169922 31.21875 z M 87.414062 31.21875 L 93.658203 31.21875 L 93.658203 37.462891 L 87.414062 37.462891 L 87.414062 43.707031 L 93.658203 43.707031 L 93.658203 49.951172 L 87.414062 49.951172 L 87.414062 56.195312 L 87.414062 62.439453 L 87.414062 68.683594 L 81.169922 68.683594 L 81.169922 62.439453 L 81.169922 56.195312 L 81.169922 49.951172 L 87.414062 49.951172 L 87.414062 43.707031 L 81.169922 43.707031 L 74.927734 43.707031 L 74.927734 49.951172 L 74.927734 56.195312 L 74.927734 62.439453 L 74.927734 68.683594 L 74.927734 74.927734 L 74.927734 81.169922 L 81.169922 81.169922 L 81.169922 74.927734 L 87.414062 74.927734 L 93.658203 74.927734 L 93.658203 68.683594 L 93.658203 62.439453 L 99.902344 62.439453 L 99.902344 56.195312 L 99.902344 49.951172 L 106.14648 49.951172 L 112.39062 49.951172 L 112.39062 43.707031 L 118.63477 43.707031 L 118.63477 37.462891 L 118.63477 31.21875 L 112.39062 31.21875 L 112.39062 37.462891 L 106.14648 37.462891 L 106.14648 31.21875 L 99.902344 31.21875 L 99.902344 24.976562 L 93.658203 24.976562 L 87.414062 24.976562 L 87.414062 31.21875 z M 106.14648 31.21875 L 112.39062 31.21875 L 112.39062 24.976562 L 106.14648 24.976562 L 106.14648 31.21875 z M 118.63477 31.21875 L 124.87891 31.21875 L 124.87891 24.976562 L 118.63477 24.976562 L 118.63477 31.21875 z M 118.63477 43.707031 L 118.63477 49.951172 L 124.87891 49.951172 L 124.87891 56.195312 L 118.63477 56.195312 L 118.63477 49.951172 L 112.39062 49.951172 L 112.39062 56.195312 L 106.14648 56.195312 L 106.14648 62.439453 L 112.39062 62.439453 L 112.39062 68.683594 L 106.14648 68.683594 L 106.14648 74.927734 L 112.39062 74.927734 L 118.63477 74.927734 L 118.63477 81.169922 L 124.87891 81.169922 L 124.87891 74.927734 L 124.87891 68.683594 L 118.63477 68.683594 L 118.63477 62.439453 L 124.87891 62.439453 L 124.87891 68.683594 L 131.12109 68.683594 L 131.12109 62.439453 L 137.36523 62.439453 L 137.36523 68.683594 L 137.36523 74.927734 L 143.60938 74.927734 L 143.60938 81.169922 L 149.85352 81.169922 L 156.09766 81.169922 L 156.09766 87.414062 L 156.09766 93.658203 L 149.85352 93.658203 L 149.85352 99.902344 L 143.60938 99.902344 L 143.60938 106.14648 L 143.60938 112.39062 L 137.36523 112.39062 L 137.36523 118.63477 L 131.12109 118.63477 L 131.12109 112.39062 L 124.87891 112.39062 L 124.87891 118.63477 L 124.87891 124.87891 L 131.12109 124.87891 L 131.12109 131.12109 L 131.12109 137.36523 L 137.36523 137.36523 L 137.36523 143.60938 L 131.12109 143.60938 L 124.87891 143.60938 L 118.63477 143.60938 L 112.39062 143.60938 L 112.39062 149.85352 L 112.39062 156.09766 L 112.39062 162.3418 L 118.63477 162.3418 L 118.63477 156.09766 L 118.63477 149.85352 L 124.87891 149.85352 L 124.87891 156.09766 L 131.12109 156.09766 L 137.36523 156.09766 L 137.36523 149.85352 L 143.60938 149.85352 L 149.85352 149.85352 L 156.09766 149.85352 L 162.3418 149.85352 L 162.3418 143.60938 L 156.09766 143.60938 L 156.09766 137.36523 L 149.85352 137.36523 L 149.85352 143.60938 L 143.60938 143.60938 L 143.60938 137.36523 L 143.60938 131.12109 L 137.36523 131.12109 L 137.36523 124.87891 L 143.60938 124.87891 L 149.85352 124.87891 L 149.85352 131.12109 L 156.09766 131.12109 L 156.09766 124.87891 L 156.09766 118.63477 L 162.3418 118.63477 L 162.3418 112.39062 L 156.09766 112.39062 L 156.09766 106.14648 L 156.09766 99.902344 L 162.3418 99.902344 L 162.3418 106.14648 L 168.58594 106.14648 L 168.58594 112.39062 L 168.58594 118.63477 L 168.58594 124.87891 L 174.83008 124.87891 L 174.83008 118.63477 L 181.07227 118.63477 L 181.07227 124.87891 L 187.31641 124.87891 L 193.56055 124.87891 L 199.80469 124.87891 L 199.80469 118.63477 L 193.56055 118.63477 L 187.31641 118.63477 L 187.31641 112.39062 L 187.31641 106.14648 L 193.56055 106.14648 L 193.56055 99.902344 L 199.80469 99.902344 L 206.04883 99.902344 L 206.04883 93.658203 L 199.80469 93.658203 L 193.56055 93.658203 L 193.56055 87.414062 L 187.31641 87.414062 L 181.07227 87.414062 L 181.07227 93.658203 L 187.31641 93.658203 L 187.31641 99.902344 L 181.07227 99.902344 L 174.83008 99.902344 L 174.83008 93.658203 L 174.83008 87.414062 L 181.07227 87.414062 L 181.07227 81.169922 L 174.83008 81.169922 L 174.83008 74.927734 L 174.83008 68.683594 L 168.58594 68.683594 L 168.58594 74.927734 L 162.3418 74.927734 L 156.09766 74.927734 L 156.09766 68.683594 L 156.09766 62.439453 L 156.09766 56.195312 L 162.3418 56.195312 L 168.58594 56.195312 L 168.58594 49.951172 L 174.83008 49.951172 L 174.83008 56.195312 L 168.58594 56.195312 L 168.58594 62.439453 L 174.83008 62.439453 L 174.83008 68.683594 L 181.07227 68.683594 L 181.07227 62.439453 L 181.07227 56.195312 L 181.07227 49.951172 L 181.07227 43.707031 L 174.83008 43.707031 L 168.58594 43.707031 L 168.58594 37.462891 L 162.3418 37.462891 L 162.3418 43.707031 L 162.3418 49.951172 L 156.09766 49.951172 L 149.85352 49.951172 L 149.85352 56.195312 L 143.60938 56.195312 L 143.60938 49.951172 L 137.36523 49.951172 L 137.36523 56.195312 L 131.12109 56.195312 L 131.12109 49.951172 L 137.36523 49.951172 L 137.36523 43.707031 L 143.60938 43.707031 L 149.85352 43.707031 L 149.85352 37.462891 L 143.60938 37.462891 L 143.60938 31.21875 L 137.36523 31.21875 L 137.36523 37.462891 L 131.12109 37.462891 L 124.87891 37.462891 L 124.87891 43.707031 L 118.63477 43.707031 z M 143.60938 31.21875 L 149.85352 31.21875 L 149.85352 24.976562 L 143.60938 24.976562 L 143.60938 31.21875 z M 149.85352 31.21875 L 149.85352 37.462891 L 156.09766 37.462891 L 156.09766 31.21875 L 149.85352 31.21875 z M 156.09766 31.21875 L 162.3418 31.21875 L 168.58594 31.21875 L 174.83008 31.21875 L 174.83008 37.462891 L 181.07227 37.462891 L 181.07227 31.21875 L 181.07227 24.976562 L 174.83008 24.976562 L 168.58594 24.976562 L 162.3418 24.976562 L 156.09766 24.976562 L 156.09766 31.21875 z M 168.58594 62.439453 L 162.3418 62.439453 L 162.3418 68.683594 L 168.58594 68.683594 L 168.58594 62.439453 z M 181.07227 81.169922 L 187.31641 81.169922 L 193.56055 81.169922 L 193.56055 87.414062 L 199.80469 87.414062 L 206.04883 87.414062 L 206.04883 81.169922 L 212.29297 81.169922 L 212.29297 74.927734 L 206.04883 74.927734 L 199.80469 74.927734 L 193.56055 74.927734 L 187.31641 74.927734 L 181.07227 74.927734 L 181.07227 81.169922 z M 212.29297 81.169922 L 212.29297 87.414062 L 212.29297 93.658203 L 212.29297 99.902344 L 206.04883 99.902344 L 206.04883 106.14648 L 199.80469 106.14648 L 193.56055 106.14648 L 193.56055 112.39062 L 199.80469 112.39062 L 206.04883 112.39062 L 212.29297 112.39062 L 212.29297 106.14648 L 218.53711 106.14648 L 218.53711 99.902344 L 218.53711 93.658203 L 224.78125 93.658203 L 224.78125 99.902344 L 224.78125 106.14648 L 231.02344 106.14648 L 231.02344 99.902344 L 231.02344 93.658203 L 231.02344 87.414062 L 231.02344 81.169922 L 231.02344 74.927734 L 224.78125 74.927734 L 224.78125 81.169922 L 218.53711 81.169922 L 212.29297 81.169922 z M 212.29297 112.39062 L 212.29297 118.63477 L 212.29297 124.87891 L 218.53711 124.87891 L 218.53711 118.63477 L 224.78125 118.63477 L 224.78125 112.39062 L 218.53711 112.39062 L 212.29297 112.39062 z M 224.78125 118.63477 L 224.78125 124.87891 L 224.78125 131.12109 L 224.78125 137.36523 L 224.78125 143.60938 L 218.53711 143.60938 L 212.29297 143.60938 L 212.29297 137.36523 L 212.29297 131.12109 L 212.29297 124.87891 L 206.04883 124.87891 L 199.80469 124.87891 L 199.80469 131.12109 L 193.56055 131.12109 L 187.31641 131.12109 L 181.07227 131.12109 L 181.07227 137.36523 L 181.07227 143.60938 L 187.31641 143.60938 L 187.31641 137.36523 L 193.56055 137.36523 L 193.56055 143.60938 L 199.80469 143.60938 L 199.80469 137.36523 L 206.04883 137.36523 L 206.04883 143.60938 L 206.04883 149.85352 L 212.29297 149.85352 L 212.29297 156.09766 L 212.29297 162.3418 L 212.29297 168.58594 L 206.04883 168.58594 L 199.80469 168.58594 L 193.56055 168.58594 L 187.31641 168.58594 L 187.31641 174.83008 L 181.07227 174.83008 L 181.07227 168.58594 L 174.83008 168.58594 L 174.83008 174.83008 L 168.58594 174.83008 L 168.58594 181.07227 L 168.58594 187.31641 L 162.3418 187.31641 L 162.3418 193.56055 L 168.58594 193.56055 L 174.83008 193.56055 L 174.83008 199.80469 L 174.83008 206.04883 L 174.83008 212.29297 L 181.07227 212.29297 L 181.07227 206.04883 L 187.31641 206.04883 L 193.56055 206.04883 L 193.56055 212.29297 L 187.31641 212.29297 L 181.07227 212.29297 L 181.07227 218.53711 L 181.07227 224.78125 L 187.31641 224.78125 L 187.31641 218.53711 L 193.56055 218.53711 L 193.56055 224.78125 L 199.80469 224.78125 L 206.04883 224.78125 L 206.04883 231.02344 L 212.29297 231.02344 L 218.53711 231.02344 L 224.78125 231.02344 L 224.78125 224.78125 L 224.78125 218.53711 L 224.78125 212.29297 L 224.78125 206.04883 L 231.02344 206.04883 L 231.02344 199.80469 L 231.02344 193.56055 L 231.02344 187.31641 L 231.02344 181.07227 L 231.02344 174.83008 L 231.02344 168.58594 L 224.78125 168.58594 L 224.78125 162.3418 L 218.53711 162.3418 L 218.53711 156.09766 L 224.78125 156.09766 L 231.02344 156.09766 L 231.02344 149.85352 L 231.02344 143.60938 L 231.02344 137.36523 L 231.02344 131.12109 L 231.02344 124.87891 L 231.02344 118.63477 L 224.78125 118.63477 z M 181.07227 224.78125 L 174.83008 224.78125 L 174.83008 231.02344 L 181.07227 231.02344 L 181.07227 224.78125 z M 174.83008 224.78125 L 174.83008 218.53711 L 174.83008 212.29297 L 168.58594 212.29297 L 168.58594 218.53711 L 162.3418 218.53711 L 162.3418 224.78125 L 162.3418 231.02344 L 168.58594 231.02344 L 168.58594 224.78125 L 174.83008 224.78125 z M 162.3418 218.53711 L 162.3418 212.29297 L 168.58594 212.29297 L 168.58594 206.04883 L 162.3418 206.04883 L 162.3418 199.80469 L 162.3418 193.56055 L 156.09766 193.56055 L 149.85352 193.56055 L 149.85352 199.80469 L 156.09766 199.80469 L 156.09766 206.04883 L 149.85352 206.04883 L 149.85352 199.80469 L 143.60938 199.80469 L 143.60938 206.04883 L 137.36523 206.04883 L 137.36523 212.29297 L 131.12109 212.29297 L 131.12109 218.53711 L 137.36523 218.53711 L 137.36523 224.78125 L 131.12109 224.78125 L 131.12109 231.02344 L 137.36523 231.02344 L 143.60938 231.02344 L 149.85352 231.02344 L 156.09766 231.02344 L 156.09766 224.78125 L 149.85352 224.78125 L 143.60938 224.78125 L 143.60938 218.53711 L 149.85352 218.53711 L 149.85352 212.29297 L 156.09766 212.29297 L 156.09766 218.53711 L 162.3418 218.53711 z M 131.12109 212.29297 L 131.12109 206.04883 L 137.36523 206.04883 L 137.36523 199.80469 L 131.12109 199.80469 L 131.12109 193.56055 L 137.36523 193.56055 L 137.36523 187.31641 L 131.12109 187.31641 L 131.12109 181.07227 L 124.87891 181.07227 L 118.63477 181.07227 L 118.63477 187.31641 L 124.87891 187.31641 L 124.87891 193.56055 L 118.63477 193.56055 L 118.63477 187.31641 L 112.39062 187.31641 L 112.39062 193.56055 L 106.14648 193.56055 L 106.14648 187.31641 L 99.902344 187.31641 L 93.658203 187.31641 L 93.658203 181.07227 L 93.658203 174.83008 L 99.902344 174.83008 L 106.14648 174.83008 L 112.39062 174.83008 L 112.39062 168.58594 L 112.39062 162.3418 L 106.14648 162.3418 L 106.14648 168.58594 L 99.902344 168.58594 L 99.902344 162.3418 L 93.658203 162.3418 L 93.658203 156.09766 L 87.414062 156.09766 L 87.414062 162.3418 L 87.414062 168.58594 L 81.169922 168.58594 L 81.169922 174.83008 L 74.927734 174.83008 L 74.927734 168.58594 L 74.927734 162.3418 L 68.683594 162.3418 L 62.439453 162.3418 L 62.439453 156.09766 L 56.195312 156.09766 L 49.951172 156.09766 L 49.951172 149.85352 L 43.707031 149.85352 L 43.707031 156.09766 L 37.462891 156.09766 L 37.462891 162.3418 L 43.707031 162.3418 L 49.951172 162.3418 L 49.951172 168.58594 L 56.195312 168.58594 L 56.195312 174.83008 L 56.195312 181.07227 L 62.439453 181.07227 L 68.683594 181.07227 L 74.927734 181.07227 L 74.927734 187.31641 L 81.169922 187.31641 L 81.169922 181.07227 L 87.414062 181.07227 L 87.414062 187.31641 L 87.414062 193.56055 L 93.658203 193.56055 L 93.658203 199.80469 L 99.902344 199.80469 L 106.14648 199.80469 L 112.39062 199.80469 L 118.63477 199.80469 L 124.87891 199.80469 L 124.87891 206.04883 L 118.63477 206.04883 L 112.39062 206.04883 L 112.39062 212.29297 L 118.63477 212.29297 L 118.63477 218.53711 L 124.87891 218.53711 L 124.87891 212.29297 L 131.12109 212.29297 z M 112.39062 212.29297 L 106.14648 212.29297 L 106.14648 218.53711 L 112.39062 218.53711 L 112.39062 212.29297 z M 93.658203 199.80469 L 87.414062 199.80469 L 81.169922 199.80469 L 74.927734 199.80469 L 74.927734 206.04883 L 81.169922 206.04883 L 81.169922 212.29297 L 74.927734 212.29297 L 74.927734 218.53711 L 74.927734 224.78125 L 74.927734 231.02344 L 81.169922 231.02344 L 81.169922 224.78125 L 81.169922 218.53711 L 87.414062 218.53711 L 93.658203 218.53711 L 93.658203 224.78125 L 87.414062 224.78125 L 87.414062 231.02344 L 93.658203 231.02344 L 99.902344 231.02344 L 99.902344 224.78125 L 99.902344 218.53711 L 99.902344 212.29297 L 93.658203 212.29297 L 93.658203 206.04883 L 93.658203 199.80469 z M 49.951172 168.58594 L 43.707031 168.58594 L 37.462891 168.58594 L 37.462891 174.83008 L 43.707031 174.83008 L 43.707031 181.07227 L 49.951172 181.07227 L 49.951172 174.83008 L 49.951172 168.58594 z M 37.462891 174.83008 L 31.21875 174.83008 L 31.21875 181.07227 L 37.462891 181.07227 L 37.462891 174.83008 z M 37.462891 156.09766 L 37.462891 149.85352 L 43.707031 149.85352 L 43.707031 143.60938 L 37.462891 143.60938 L 31.21875 143.60938 L 31.21875 149.85352 L 24.976562 149.85352 L 24.976562 156.09766 L 24.976562 162.3418 L 31.21875 162.3418 L 31.21875 156.09766 L 37.462891 156.09766 z M 31.21875 143.60938 L 31.21875 137.36523 L 37.462891 137.36523 L 37.462891 131.12109 L 31.21875 131.12109 L 24.976562 131.12109 L 24.976562 137.36523 L 24.976562 143.60938 L 31.21875 143.60938 z M 37.462891 131.12109 L 43.707031 131.12109 L 49.951172 131.12109 L 56.195312 131.12109 L 62.439453 131.12109 L 68.683594 131.12109 L 74.927734 131.12109 L 74.927734 124.87891 L 74.927734 118.63477 L 68.683594 118.63477 L 68.683594 124.87891 L 62.439453 124.87891 L 62.439453 118.63477 L 68.683594 118.63477 L 68.683594 112.39062 L 62.439453 112.39062 L 62.439453 106.14648 L 68.683594 106.14648 L 68.683594 99.902344 L 62.439453 99.902344 L 56.195312 99.902344 L 56.195312 106.14648 L 49.951172 106.14648 L 49.951172 112.39062 L 56.195312 112.39062 L 56.195312 118.63477 L 49.951172 118.63477 L 49.951172 124.87891 L 43.707031 124.87891 L 37.462891 124.87891 L 37.462891 131.12109 z M 49.951172 118.63477 L 49.951172 112.39062 L 43.707031 112.39062 L 43.707031 106.14648 L 37.462891 106.14648 L 31.21875 106.14648 L 24.976562 106.14648 L 24.976562 112.39062 L 24.976562 118.63477 L 31.21875 118.63477 L 37.462891 118.63477 L 43.707031 118.63477 L 49.951172 118.63477 z M 56.195312 99.902344 L 56.195312 93.658203 L 56.195312 87.414062 L 49.951172 87.414062 L 49.951172 93.658203 L 49.951172 99.902344 L 56.195312 99.902344 z M 49.951172 87.414062 L 49.951172 81.169922 L 43.707031 81.169922 L 43.707031 87.414062 L 49.951172 87.414062 z M 43.707031 87.414062 L 37.462891 87.414062 L 37.462891 81.169922 L 43.707031 81.169922 L 43.707031 74.927734 L 37.462891 74.927734 L 31.21875 74.927734 L 24.976562 74.927734 L 24.976562 81.169922 L 24.976562 87.414062 L 31.21875 87.414062 L 31.21875 93.658203 L 31.21875 99.902344 L 37.462891 99.902344 L 43.707031 99.902344 L 43.707031 93.658203 L 43.707031 87.414062 z M 49.951172 81.169922 L 56.195312 81.169922 L 56.195312 74.927734 L 49.951172 74.927734 L 49.951172 81.169922 z M 68.683594 106.14648 L 68.683594 112.39062 L 74.927734 112.39062 L 74.927734 106.14648 L 68.683594 106.14648 z M 74.927734 106.14648 L 81.169922 106.14648 L 81.169922 112.39062 L 74.927734 112.39062 L 74.927734 118.63477 L 81.169922 118.63477 L 81.169922 124.87891 L 87.414062 124.87891 L 87.414062 131.12109 L 93.658203 131.12109 L 93.658203 124.87891 L 99.902344 124.87891 L 99.902344 118.63477 L 93.658203 118.63477 L 87.414062 118.63477 L 87.414062 112.39062 L 93.658203 112.39062 L 99.902344 112.39062 L 106.14648 112.39062 L 106.14648 106.14648 L 106.14648 99.902344 L 112.39062 99.902344 L 118.63477 99.902344 L 118.63477 93.658203 L 112.39062 93.658203 L 106.14648 93.658203 L 99.902344 93.658203 L 99.902344 99.902344 L 93.658203 99.902344 L 93.658203 106.14648 L 87.414062 106.14648 L 87.414062 99.902344 L 81.169922 99.902344 L 74.927734 99.902344 L 74.927734 106.14648 z M 106.14648 112.39062 L 106.14648 118.63477 L 112.39062 118.63477 L 112.39062 124.87891 L 118.63477 124.87891 L 118.63477 118.63477 L 118.63477 112.39062 L 112.39062 112.39062 L 106.14648 112.39062 z M 118.63477 112.39062 L 124.87891 112.39062 L 124.87891 106.14648 L 118.63477 106.14648 L 118.63477 112.39062 z M 124.87891 106.14648 L 131.12109 106.14648 L 137.36523 106.14648 L 137.36523 99.902344 L 143.60938 99.902344 L 143.60938 93.658203 L 149.85352 93.658203 L 149.85352 87.414062 L 143.60938 87.414062 L 143.60938 81.169922 L 137.36523 81.169922 L 137.36523 87.414062 L 131.12109 87.414062 L 131.12109 81.169922 L 124.87891 81.169922 L 124.87891 87.414062 L 124.87891 93.658203 L 131.12109 93.658203 L 131.12109 99.902344 L 124.87891 99.902344 L 124.87891 106.14648 z M 118.63477 124.87891 L 118.63477 131.12109 L 124.87891 131.12109 L 124.87891 124.87891 L 118.63477 124.87891 z M 118.63477 131.12109 L 112.39062 131.12109 L 106.14648 131.12109 L 99.902344 131.12109 L 99.902344 137.36523 L 106.14648 137.36523 L 106.14648 143.60938 L 112.39062 143.60938 L 112.39062 137.36523 L 118.63477 137.36523 L 118.63477 131.12109 z M 99.902344 137.36523 L 93.658203 137.36523 L 93.658203 143.60938 L 99.902344 143.60938 L 99.902344 137.36523 z M 87.414062 131.12109 L 81.169922 131.12109 L 74.927734 131.12109 L 74.927734 137.36523 L 81.169922 137.36523 L 81.169922 143.60938 L 74.927734 143.60938 L 74.927734 149.85352 L 68.683594 149.85352 L 62.439453 149.85352 L 62.439453 156.09766 L 68.683594 156.09766 L 74.927734 156.09766 L 81.169922 156.09766 L 87.414062 156.09766 L 87.414062 149.85352 L 87.414062 143.60938 L 87.414062 137.36523 L 87.414062 131.12109 z M 74.927734 143.60938 L 74.927734 137.36523 L 68.683594 137.36523 L 62.439453 137.36523 L 62.439453 143.60938 L 68.683594 143.60938 L 74.927734 143.60938 z M 43.707031 143.60938 L 49.951172 143.60938 L 49.951172 149.85352 L 56.195312 149.85352 L 56.195312 143.60938 L 56.195312 137.36523 L 49.951172 137.36523 L 43.707031 137.36523 L 43.707031 143.60938 z M 93.658203 156.09766 L 99.902344 156.09766 L 99.902344 149.85352 L 93.658203 149.85352 L 93.658203 156.09766 z M 112.39062 174.83008 L 112.39062 181.07227 L 118.63477 181.07227 L 118.63477 174.83008 L 112.39062 174.83008 z M 112.39062 181.07227 L 106.14648 181.07227 L 106.14648 187.31641 L 112.39062 187.31641 L 112.39062 181.07227 z M 137.36523 193.56055 L 137.36523 199.80469 L 143.60938 199.80469 L 143.60938 193.56055 L 137.36523 193.56055 z M 162.3418 187.31641 L 162.3418 181.07227 L 156.09766 181.07227 L 149.85352 181.07227 L 149.85352 187.31641 L 156.09766 187.31641 L 162.3418 187.31641 z M 149.85352 181.07227 L 149.85352 174.83008 L 143.60938 174.83008 L 143.60938 181.07227 L 149.85352 181.07227 z M 143.60938 174.83008 L 143.60938 168.58594 L 137.36523 168.58594 L 137.36523 174.83008 L 143.60938 174.83008 z M 143.60938 168.58594 L 149.85352 168.58594 L 149.85352 162.3418 L 143.60938 162.3418 L 143.60938 168.58594 z M 143.60938 162.3418 L 143.60938 156.09766 L 137.36523 156.09766 L 137.36523 162.3418 L 143.60938 162.3418 z M 168.58594 174.83008 L 168.58594 168.58594 L 162.3418 168.58594 L 162.3418 162.3418 L 156.09766 162.3418 L 156.09766 168.58594 L 156.09766 174.83008 L 162.3418 174.83008 L 168.58594 174.83008 z M 168.58594 168.58594 L 174.83008 168.58594 L 174.83008 162.3418 L 168.58594 162.3418 L 168.58594 168.58594 z M 206.04883 149.85352 L 199.80469 149.85352 L 199.80469 156.09766 L 206.04883 156.09766 L 206.04883 149.85352 z M 193.56055 143.60938 L 187.31641 143.60938 L 187.31641 149.85352 L 193.56055 149.85352 L 193.56055 143.60938 z M 181.07227 131.12109 L 181.07227 124.87891 L 174.83008 124.87891 L 174.83008 131.12109 L 181.07227 131.12109 z M 174.83008 131.12109 L 168.58594 131.12109 L 168.58594 137.36523 L 162.3418 137.36523 L 162.3418 143.60938 L 168.58594 143.60938 L 168.58594 149.85352 L 162.3418 149.85352 L 162.3418 156.09766 L 168.58594 156.09766 L 174.83008 156.09766 L 174.83008 149.85352 L 174.83008 143.60938 L 174.83008 137.36523 L 174.83008 131.12109 z M 118.63477 162.3418 L 118.63477 168.58594 L 124.87891 168.58594 L 124.87891 174.83008 L 131.12109 174.83008 L 131.12109 168.58594 L 131.12109 162.3418 L 124.87891 162.3418 L 118.63477 162.3418 z M 106.14648 74.927734 L 99.902344 74.927734 L 99.902344 81.169922 L 93.658203 81.169922 L 93.658203 87.414062 L 99.902344 87.414062 L 106.14648 87.414062 L 106.14648 81.169922 L 106.14648 74.927734 z M 93.658203 87.414062 L 87.414062 87.414062 L 81.169922 87.414062 L 74.927734 87.414062 L 74.927734 93.658203 L 81.169922 93.658203 L 87.414062 93.658203 L 93.658203 93.658203 L 93.658203 87.414062 z M 74.927734 87.414062 L 74.927734 81.169922 L 68.683594 81.169922 L 68.683594 87.414062 L 74.927734 87.414062 z M 68.683594 87.414062 L 62.439453 87.414062 L 62.439453 93.658203 L 68.683594 93.658203 L 68.683594 87.414062 z M 68.683594 81.169922 L 68.683594 74.927734 L 62.439453 74.927734 L 62.439453 81.169922 L 68.683594 81.169922 z M 106.14648 68.683594 L 106.14648 62.439453 L 99.902344 62.439453 L 99.902344 68.683594 L 106.14648 68.683594 z M 187.31641 24.976562 L 187.31641 31.21875 L 187.31641 37.462891 L 187.31641 43.707031 L 187.31641 49.951172 L 187.31641 56.195312 L 187.31641 62.439453 L 187.31641 68.683594 L 193.56055 68.683594 L 199.80469 68.683594 L 206.04883 68.683594 L 212.29297 68.683594 L 218.53711 68.683594 L 224.78125 68.683594 L 231.02344 68.683594 L 231.02344 62.439453 L 231.02344 56.195312 L 231.02344 49.951172 L 231.02344 43.707031 L 231.02344 37.462891 L 231.02344 31.21875 L 231.02344 24.976562 L 224.78125 24.976562 L 218.53711 24.976562 L 212.29297 24.976562 L 206.04883 24.976562 L 199.80469 24.976562 L 193.56055 24.976562 L 187.31641 24.976562 z M 31.21875 31.21875 L 37.462891 31.21875 L 43.707031 31.21875 L 49.951172 31.21875 L 56.195312 31.21875 L 62.439453 31.21875 L 62.439453 37.462891 L 62.439453 43.707031 L 62.439453 49.951172 L 62.439453 56.195312 L 62.439453 62.439453 L 56.195312 62.439453 L 49.951172 62.439453 L 43.707031 62.439453 L 37.462891 62.439453 L 31.21875 62.439453 L 31.21875 56.195312 L 31.21875 49.951172 L 31.21875 43.707031 L 31.21875 37.462891 L 31.21875 31.21875 z M 193.56055 31.21875 L 199.80469 31.21875 L 206.04883 31.21875 L 212.29297 31.21875 L 218.53711 31.21875 L 224.78125 31.21875 L 224.78125 37.462891 L 224.78125 43.707031 L 224.78125 49.951172 L 224.78125 56.195312 L 224.78125 62.439453 L 218.53711 62.439453 L 212.29297 62.439453 L 206.04883 62.439453 L 199.80469 62.439453 L 193.56055 62.439453 L 193.56055 56.195312 L 193.56055 49.951172 L 193.56055 43.707031 L 193.56055 37.462891 L 193.56055 31.21875 z M 37.462891 37.462891 L 37.462891 43.707031 L 37.462891 49.951172 L 37.462891 56.195312 L 43.707031 56.195312 L 49.951172 56.195312 L 56.195312 56.195312 L 56.195312 49.951172 L 56.195312 43.707031 L 56.195312 37.462891 L 49.951172 37.462891 L 43.707031 37.462891 L 37.462891 37.462891 z M 199.80469 37.462891 L 199.80469 43.707031 L 199.80469 49.951172 L 199.80469 56.195312 L 206.04883 56.195312 L 212.29297 56.195312 L 218.53711 56.195312 L 218.53711 49.951172 L 218.53711 43.707031 L 218.53711 37.462891 L 212.29297 37.462891 L 206.04883 37.462891 L 199.80469 37.462891 z M 143.60938 62.439453 L 149.85352 62.439453 L 149.85352 68.683594 L 143.60938 68.683594 L 143.60938 62.439453 z M 181.07227 156.09766 L 181.07227 162.3418 L 187.31641 162.3418 L 193.56055 162.3418 L 193.56055 156.09766 L 187.31641 156.09766 L 181.07227 156.09766 z M 62.439453 168.58594 L 68.683594 168.58594 L 68.683594 174.83008 L 62.439453 174.83008 L 62.439453 168.58594 z M 212.29297 174.83008 L 218.53711 174.83008 L 224.78125 174.83008 L 224.78125 181.07227 L 218.53711 181.07227 L 212.29297 181.07227 L 212.29297 174.83008 z M 181.07227 181.07227 L 187.31641 181.07227 L 193.56055 181.07227 L 199.80469 181.07227 L 199.80469 187.31641 L 199.80469 193.56055 L 199.80469 199.80469 L 193.56055 199.80469 L 187.31641 199.80469 L 181.07227 199.80469 L 181.07227 193.56055 L 181.07227 187.31641 L 181.07227 181.07227 z M 24.976562 187.31641 L 24.976562 193.56055 L 24.976562 199.80469 L 24.976562 206.04883 L 24.976562 212.29297 L 24.976562 218.53711 L 24.976562 224.78125 L 24.976562 231.02344 L 31.21875 231.02344 L 37.462891 231.02344 L 43.707031 231.02344 L 49.951172 231.02344 L 56.195312 231.02344 L 62.439453 231.02344 L 68.683594 231.02344 L 68.683594 224.78125 L 68.683594 218.53711 L 68.683594 212.29297 L 68.683594 206.04883 L 68.683594 199.80469 L 68.683594 193.56055 L 68.683594 187.31641 L 62.439453 187.31641 L 56.195312 187.31641 L 49.951172 187.31641 L 43.707031 187.31641 L 37.462891 187.31641 L 31.21875 187.31641 L 24.976562 187.31641 z M 187.31641 187.31641 L 187.31641 193.56055 L 193.56055 193.56055 L 193.56055 187.31641 L 187.31641 187.31641 z M 206.04883 187.31641 L 212.29297 187.31641 L 218.53711 187.31641 L 224.78125 187.31641 L 224.78125 193.56055 L 218.53711 193.56055 L 212.29297 193.56055 L 206.04883 193.56055 L 206.04883 187.31641 z M 31.21875 193.56055 L 37.462891 193.56055 L 43.707031 193.56055 L 49.951172 193.56055 L 56.195312 193.56055 L 62.439453 193.56055 L 62.439453 199.80469 L 62.439453 206.04883 L 62.439453 212.29297 L 62.439453 218.53711 L 62.439453 224.78125 L 56.195312 224.78125 L 49.951172 224.78125 L 43.707031 224.78125 L 37.462891 224.78125 L 31.21875 224.78125 L 31.21875 218.53711 L 31.21875 212.29297 L 31.21875 206.04883 L 31.21875 199.80469 L 31.21875 193.56055 z M 37.462891 199.80469 L 37.462891 206.04883 L 37.462891 212.29297 L 37.462891 218.53711 L 43.707031 218.53711 L 49.951172 218.53711 L 56.195312 218.53711 L 56.195312 212.29297 L 56.195312 206.04883 L 56.195312 199.80469 L 49.951172 199.80469 L 43.707031 199.80469 L 37.462891 199.80469 z M 206.04883 199.80469 L 212.29297 199.80469 L 212.29297 206.04883 L 218.53711 206.04883 L 218.53711 212.29297 L 218.53711 218.53711 L 212.29297 218.53711 L 212.29297 212.29297 L 206.04883 212.29297 L 206.04883 218.53711 L 199.80469 218.53711 L 199.80469 212.29297 L 199.80469 206.04883 L 206.04883 206.04883 L 206.04883 199.80469 z M 118.63477 224.78125 L 118.63477 231.02344 L 124.87891 231.02344 L 124.87891 224.78125 L 118.63477 224.78125 z "
     id="rect4" />
</svg>
