<?xml version="1.0" encoding="UTF-8" standalone="no"?>
<svg
   xmlns:dc="http://purl.org/dc/elements/1.1/"
   xmlns:cc="http://creativecommons.org/ns#"
   xmlns:rdf="http://www.w3.org/1999/02/22-rdf-syntax-ns#"
   xmlns:svg="http://www.w3.org/2000/svg"
   xmlns="http://www.w3.org/2000/svg"
   xmlns:sodipodi="http://sodipodi.sourceforge.net/DTD/sodipodi-0.dtd"
   xmlns:inkscape="http://www.inkscape.org/namespaces/inkscape"
   version="1.1"
   width="256"
   height="256"
   id="svg1368"
   sodipodi:docname="mensa.svg"
   inkscape:version="0.92.2 5c3e80d, 2017-08-06">
  <metadata
     id="metadata1374">
    <rdf:RDF>
      <cc:Work
         rdf:about="">
        <dc:format>image/svg+xml</dc:format>
        <dc:type
           rdf:resource="http://purl.org/dc/dcmitype/StillImage" />
      </cc:Work>
    </rdf:RDF>
  </metadata>
  <defs
     id="defs1372" />
  <sodipodi:namedview
     pagecolor="#ffffff"
     bordercolor="#666666"
     borderopacity="1"
     objecttolerance="10"
     gridtolerance="10"
     guidetolerance="10"
     inkscape:pageopacity="0"
     inkscape:pageshadow="2"
     inkscape:window-width="1443"
     inkscape:window-height="862"
     id="namedview1370"
     showgrid="false"
     inkscape:zoom="1.3037281"
     inkscape:cx="168.4133"
     inkscape:cy="56.1248"
     inkscape:window-x="42"
     inkscape:window-y="0"
     inkscape:window-maximized="0"
     inkscape:current-layer="svg1368" />
  <path
     style="fill:#000000;shape-rendering:crispEdges;"
     d="M 22.755859 22.755859 L 22.755859 28.445312 L 22.755859 34.132812 L 22.755859 39.822266 L 22.755859 45.511719 L 22.755859 51.199219 L 22.755859 56.888672 L 22.755859 62.578125 L 28.445312 62.578125 L 34.132812 62.578125 L 39.822266 62.578125 L 45.511719 62.578125 L 51.199219 62.578125 L 56.888672 62.578125 L 62.578125 62.578125 L 62.578125 56.888672 L 62.578125 51.199219 L 62.578125 45.511719 L 62.578125 39.822266 L 62.578125 34.132812 L 62.578125 28.445312 L 62.578125 22.755859 L 56.888672 22.755859 L 51.199219 22.755859 L 45.511719 22.755859 L 39.822266 22.755859 L 34.132812 22.755859 L 28.445312 22.755859 L 22.755859 22.755859 z M 68.267578 22.755859 L 68.267578 28.445312 L 73.955078 28.445312 L 73.955078 34.132812 L 73.955078 39.822266 L 73.955078 45.511719 L 79.644531 45.511719 L 79.644531 51.199219 L 85.333984 51.199219 L 85.333984 45.511719 L 85.333984 39.822266 L 91.021484 39.822266 L 96.710938 39.822266 L 96.710938 34.132812 L 102.40039 34.132812 L 102.40039 39.822266 L 108.08984 39.822266 L 108.08984 34.132812 L 108.08984 28.445312 L 102.40039 28.445312 L 102.40039 22.755859 L 96.710938 22.755859 L 91.021484 22.755859 L 91.021484 28.445312 L 91.021484 34.132812 L 85.333984 34.132812 L 79.644531 34.132812 L 79.644531 28.445312 L 79.644531 22.755859 L 73.955078 22.755859 L 68.267578 22.755859 z M 85.333984 51.199219 L 85.333984 56.888672 L 91.021484 56.888672 L 91.021484 51.199219 L 85.333984 51.199219 z M 91.021484 51.199219 L 96.710938 51.199219 L 102.40039 51.199219 L 102.40039 45.511719 L 96.710938 45.511719 L 91.021484 45.511719 L 91.021484 51.199219 z M 91.021484 56.888672 L 91.021484 62.578125 L 96.710938 62.578125 L 96.710938 56.888672 L 91.021484 56.888672 z M 85.333984 56.888672 L 79.644531 56.888672 L 79.644531 62.578125 L 85.333984 62.578125 L 85.333984 56.888672 z M 79.644531 62.578125 L 73.955078 62.578125 L 73.955078 56.888672 L 68.267578 56.888672 L 68.267578 62.578125 L 68.267578 68.267578 L 62.578125 68.267578 L 56.888672 68.267578 L 51.199219 68.267578 L 45.511719 68.267578 L 39.822266 68.267578 L 39.822266 73.955078 L 39.822266 79.644531 L 39.822266 85.333984 L 45.511719 85.333984 L 51.199219 85.333984 L 51.199219 79.644531 L 56.888672 79.644531 L 56.888672 73.955078 L 62.578125 73.955078 L 68.267578 73.955078 L 68.267578 79.644531 L 73.955078 79.644531 L 73.955078 73.955078 L 73.955078 68.267578 L 79.644531 68.267578 L 79.644531 62.578125 z M 79.644531 68.267578 L 79.644531 73.955078 L 85.333984 73.955078 L 91.021484 73.955078 L 91.021484 68.267578 L 85.333984 68.267578 L 79.644531 68.267578 z M 56.888672 79.644531 L 56.888672 85.333984 L 62.578125 85.333984 L 62.578125 79.644531 L 56.888672 79.644531 z M 56.888672 85.333984 L 51.199219 85.333984 L 51.199219 91.021484 L 51.199219 96.710938 L 56.888672 96.710938 L 62.578125 96.710938 L 62.578125 91.021484 L 56.888672 91.021484 L 56.888672 85.333984 z M 51.199219 96.710938 L 45.511719 96.710938 L 45.511719 102.40039 L 45.511719 108.08984 L 39.822266 108.08984 L 39.822266 113.77734 L 45.511719 113.77734 L 51.199219 113.77734 L 51.199219 108.08984 L 51.199219 102.40039 L 51.199219 96.710938 z M 39.822266 113.77734 L 34.132812 113.77734 L 34.132812 119.4668 L 28.445312 119.4668 L 28.445312 113.77734 L 28.445312 108.08984 L 28.445312 102.40039 L 34.132812 102.40039 L 34.132812 108.08984 L 39.822266 108.08984 L 39.822266 102.40039 L 39.822266 96.710938 L 34.132812 96.710938 L 34.132812 91.021484 L 28.445312 91.021484 L 22.755859 91.021484 L 22.755859 96.710938 L 22.755859 102.40039 L 22.755859 108.08984 L 22.755859 113.77734 L 22.755859 119.4668 L 22.755859 125.15625 L 28.445312 125.15625 L 34.132812 125.15625 L 34.132812 130.84375 L 39.822266 130.84375 L 45.511719 130.84375 L 51.199219 130.84375 L 51.199219 125.15625 L 56.888672 125.15625 L 56.888672 119.4668 L 51.199219 119.4668 L 45.511719 119.4668 L 45.511719 125.15625 L 39.822266 125.15625 L 39.822266 119.4668 L 39.822266 113.77734 z M 56.888672 119.4668 L 62.578125 119.4668 L 68.267578 119.4668 L 73.955078 119.4668 L 73.955078 113.77734 L 73.955078 108.08984 L 68.267578 108.08984 L 68.267578 113.77734 L 62.578125 113.77734 L 56.888672 113.77734 L 56.888672 119.4668 z M 56.888672 125.15625 L 56.888672 130.84375 L 62.578125 130.84375 L 62.578125 125.15625 L 56.888672 125.15625 z M 62.578125 130.84375 L 62.578125 136.5332 L 56.888672 136.5332 L 56.888672 142.22266 L 62.578125 142.22266 L 62.578125 147.91016 L 68.267578 147.91016 L 68.267578 142.22266 L 73.955078 142.22266 L 73.955078 136.5332 L 79.644531 136.5332 L 85.333984 136.5332 L 85.333984 142.22266 L 85.333984 147.91016 L 85.333984 153.59961 L 79.644531 153.59961 L 79.644531 159.28906 L 73.955078 159.28906 L 73.955078 164.97852 L 79.644531 164.97852 L 79.644531 170.66602 L 73.955078 170.66602 L 68.267578 170.66602 L 62.578125 170.66602 L 56.888672 170.66602 L 56.888672 176.35547 L 62.578125 176.35547 L 62.578125 182.04492 L 68.267578 182.04492 L 68.267578 187.73242 L 68.267578 193.42188 L 68.267578 199.11133 L 68.267578 204.80078 L 68.267578 210.48828 L 68.267578 216.17773 L 73.955078 216.17773 L 73.955078 210.48828 L 79.644531 210.48828 L 79.644531 204.80078 L 85.333984 204.80078 L 85.333984 199.11133 L 79.644531 199.11133 L 73.955078 199.11133 L 73.955078 193.42188 L 73.955078 187.73242 L 79.644531 187.73242 L 79.644531 182.04492 L 85.333984 182.04492 L 91.021484 182.04492 L 91.021484 176.35547 L 85.333984 176.35547 L 85.333984 170.66602 L 85.333984 164.97852 L 85.333984 159.28906 L 91.021484 159.28906 L 91.021484 153.59961 L 96.710938 153.59961 L 96.710938 159.28906 L 102.40039 159.28906 L 108.08984 159.28906 L 108.08984 153.59961 L 102.40039 153.59961 L 102.40039 147.91016 L 102.40039 142.22266 L 96.710938 142.22266 L 96.710938 136.5332 L 91.021484 136.5332 L 91.021484 130.84375 L 91.021484 125.15625 L 96.710938 125.15625 L 96.710938 119.4668 L 91.021484 119.4668 L 91.021484 113.77734 L 91.021484 108.08984 L 85.333984 108.08984 L 85.333984 102.40039 L 85.333984 96.710938 L 79.644531 96.710938 L 79.644531 102.40039 L 79.644531 108.08984 L 79.644531 113.77734 L 85.333984 113.77734 L 85.333984 119.4668 L 79.644531 119.4668 L 79.644531 125.15625 L 73.955078 125.15625 L 73.955078 130.84375 L 68.267578 130.84375 L 62.578125 130.84375 z M 91.021484 108.08984 L 96.710938 108.08984 L 96.710938 113.77734 L 96.710938 119.4668 L 102.40039 119.4668 L 102.40039 113.77734 L 108.08984 113.77734 L 113.77734 113.77734 L 119.4668 113.77734 L 119.4668 108.08984 L 113.77734 108.08984 L 113.77734 102.40039 L 119.4668 102.40039 L 119.4668 96.710938 L 113.77734 96.710938 L 108.08984 96.710938 L 108.08984 102.40039 L 102.40039 102.40039 L 102.40039 96.710938 L 108.08984 96.710938 L 108.08984 91.021484 L 113.77734 91.021484 L 119.4668 91.021484 L 119.4668 96.710938 L 125.15625 96.710938 L 125.15625 91.021484 L 130.84375 91.021484 L 130.84375 85.333984 L 125.15625 85.333984 L 125.15625 79.644531 L 130.84375 79.644531 L 136.5332 79.644531 L 136.5332 73.955078 L 130.84375 73.955078 L 130.84375 68.267578 L 125.15625 68.267578 L 125.15625 73.955078 L 119.4668 73.955078 L 119.4668 79.644531 L 119.4668 85.333984 L 113.77734 85.333984 L 113.77734 79.644531 L 108.08984 79.644531 L 102.40039 79.644531 L 102.40039 85.333984 L 102.40039 91.021484 L 96.710938 91.021484 L 96.710938 96.710938 L 91.021484 96.710938 L 91.021484 102.40039 L 91.021484 108.08984 z M 96.710938 91.021484 L 96.710938 85.333984 L 96.710938 79.644531 L 91.021484 79.644531 L 91.021484 85.333984 L 85.333984 85.333984 L 85.333984 79.644531 L 79.644531 79.644531 L 79.644531 85.333984 L 79.644531 91.021484 L 85.333984 91.021484 L 91.021484 91.021484 L 96.710938 91.021484 z M 96.710938 79.644531 L 102.40039 79.644531 L 102.40039 73.955078 L 108.08984 73.955078 L 113.77734 73.955078 L 119.4668 73.955078 L 119.4668 68.267578 L 113.77734 68.267578 L 113.77734 62.578125 L 108.08984 62.578125 L 108.08984 68.267578 L 102.40039 68.267578 L 96.710938 68.267578 L 96.710938 73.955078 L 96.710938 79.644531 z M 108.08984 62.578125 L 108.08984 56.888672 L 102.40039 56.888672 L 102.40039 62.578125 L 108.08984 62.578125 z M 113.77734 62.578125 L 119.4668 62.578125 L 119.4668 56.888672 L 113.77734 56.888672 L 113.77734 62.578125 z M 130.84375 68.267578 L 136.5332 68.267578 L 142.22266 68.267578 L 142.22266 62.578125 L 142.22266 56.888672 L 136.5332 56.888672 L 136.5332 62.578125 L 130.84375 62.578125 L 130.84375 68.267578 z M 130.84375 62.578125 L 130.84375 56.888672 L 130.84375 51.199219 L 125.15625 51.199219 L 125.15625 56.888672 L 125.15625 62.578125 L 130.84375 62.578125 z M 125.15625 51.199219 L 125.15625 45.511719 L 119.4668 45.511719 L 113.77734 45.511719 L 108.08984 45.511719 L 108.08984 51.199219 L 113.77734 51.199219 L 119.4668 51.199219 L 125.15625 51.199219 z M 125.15625 45.511719 L 130.84375 45.511719 L 136.5332 45.511719 L 136.5332 51.199219 L 142.22266 51.199219 L 142.22266 45.511719 L 147.91016 45.511719 L 147.91016 51.199219 L 153.59961 51.199219 L 153.59961 56.888672 L 159.28906 56.888672 L 159.28906 62.578125 L 164.97852 62.578125 L 164.97852 56.888672 L 170.66602 56.888672 L 170.66602 51.199219 L 176.35547 51.199219 L 182.04492 51.199219 L 182.04492 45.511719 L 176.35547 45.511719 L 170.66602 45.511719 L 164.97852 45.511719 L 164.97852 51.199219 L 159.28906 51.199219 L 159.28906 45.511719 L 153.59961 45.511719 L 153.59961 39.822266 L 147.91016 39.822266 L 147.91016 34.132812 L 147.91016 28.445312 L 147.91016 22.755859 L 142.22266 22.755859 L 142.22266 28.445312 L 136.5332 28.445312 L 136.5332 34.132812 L 136.5332 39.822266 L 130.84375 39.822266 L 130.84375 34.132812 L 130.84375 28.445312 L 130.84375 22.755859 L 125.15625 22.755859 L 125.15625 28.445312 L 119.4668 28.445312 L 113.77734 28.445312 L 113.77734 34.132812 L 119.4668 34.132812 L 119.4668 39.822266 L 125.15625 39.822266 L 125.15625 45.511719 z M 153.59961 39.822266 L 159.28906 39.822266 L 159.28906 34.132812 L 153.59961 34.132812 L 153.59961 39.822266 z M 182.04492 45.511719 L 187.73242 45.511719 L 187.73242 39.822266 L 182.04492 39.822266 L 182.04492 45.511719 z M 170.66602 56.888672 L 170.66602 62.578125 L 176.35547 62.578125 L 176.35547 56.888672 L 170.66602 56.888672 z M 176.35547 62.578125 L 176.35547 68.267578 L 176.35547 73.955078 L 182.04492 73.955078 L 187.73242 73.955078 L 187.73242 79.644531 L 193.42188 79.644531 L 199.11133 79.644531 L 199.11133 73.955078 L 199.11133 68.267578 L 193.42188 68.267578 L 187.73242 68.267578 L 182.04492 68.267578 L 182.04492 62.578125 L 176.35547 62.578125 z M 182.04492 62.578125 L 187.73242 62.578125 L 187.73242 56.888672 L 182.04492 56.888672 L 182.04492 62.578125 z M 170.66602 62.578125 L 164.97852 62.578125 L 164.97852 68.267578 L 170.66602 68.267578 L 170.66602 62.578125 z M 159.28906 62.578125 L 153.59961 62.578125 L 153.59961 56.888672 L 147.91016 56.888672 L 147.91016 62.578125 L 147.91016 68.267578 L 153.59961 68.267578 L 153.59961 73.955078 L 153.59961 79.644531 L 153.59961 85.333984 L 159.28906 85.333984 L 159.28906 91.021484 L 164.97852 91.021484 L 164.97852 96.710938 L 170.66602 96.710938 L 170.66602 91.021484 L 176.35547 91.021484 L 176.35547 85.333984 L 170.66602 85.333984 L 170.66602 79.644531 L 170.66602 73.955078 L 164.97852 73.955078 L 159.28906 73.955078 L 159.28906 68.267578 L 159.28906 62.578125 z M 176.35547 85.333984 L 182.04492 85.333984 L 182.04492 79.644531 L 176.35547 79.644531 L 176.35547 85.333984 z M 176.35547 91.021484 L 176.35547 96.710938 L 170.66602 96.710938 L 170.66602 102.40039 L 170.66602 108.08984 L 170.66602 113.77734 L 176.35547 113.77734 L 176.35547 119.4668 L 176.35547 125.15625 L 176.35547 130.84375 L 170.66602 130.84375 L 170.66602 125.15625 L 164.97852 125.15625 L 164.97852 130.84375 L 159.28906 130.84375 L 159.28906 136.5332 L 153.59961 136.5332 L 147.91016 136.5332 L 147.91016 142.22266 L 147.91016 147.91016 L 147.91016 153.59961 L 142.22266 153.59961 L 142.22266 147.91016 L 142.22266 142.22266 L 142.22266 136.5332 L 142.22266 130.84375 L 136.5332 130.84375 L 136.5332 136.5332 L 136.5332 142.22266 L 130.84375 142.22266 L 130.84375 147.91016 L 136.5332 147.91016 L 136.5332 153.59961 L 136.5332 159.28906 L 142.22266 159.28906 L 147.91016 159.28906 L 153.59961 159.28906 L 153.59961 153.59961 L 153.59961 147.91016 L 159.28906 147.91016 L 159.28906 142.22266 L 164.97852 142.22266 L 164.97852 136.5332 L 170.66602 136.5332 L 176.35547 136.5332 L 176.35547 142.22266 L 176.35547 147.91016 L 182.04492 147.91016 L 182.04492 153.59961 L 187.73242 153.59961 L 187.73242 147.91016 L 193.42188 147.91016 L 193.42188 142.22266 L 187.73242 142.22266 L 187.73242 136.5332 L 182.04492 136.5332 L 182.04492 130.84375 L 182.04492 125.15625 L 187.73242 125.15625 L 187.73242 119.4668 L 182.04492 119.4668 L 182.04492 113.77734 L 182.04492 108.08984 L 176.35547 108.08984 L 176.35547 102.40039 L 182.04492 102.40039 L 187.73242 102.40039 L 187.73242 96.710938 L 187.73242 91.021484 L 182.04492 91.021484 L 176.35547 91.021484 z M 187.73242 91.021484 L 193.42188 91.021484 L 193.42188 85.333984 L 187.73242 85.333984 L 187.73242 91.021484 z M 187.73242 125.15625 L 187.73242 130.84375 L 193.42188 130.84375 L 193.42188 125.15625 L 187.73242 125.15625 z M 193.42188 125.15625 L 199.11133 125.15625 L 199.11133 130.84375 L 199.11133 136.5332 L 193.42188 136.5332 L 193.42188 142.22266 L 199.11133 142.22266 L 204.80078 142.22266 L 204.80078 136.5332 L 210.48828 136.5332 L 210.48828 142.22266 L 210.48828 147.91016 L 216.17773 147.91016 L 216.17773 153.59961 L 221.86719 153.59961 L 227.55469 153.59961 L 227.55469 159.28906 L 221.86719 159.28906 L 221.86719 164.97852 L 227.55469 164.97852 L 233.24414 164.97852 L 233.24414 159.28906 L 233.24414 153.59961 L 233.24414 147.91016 L 233.24414 142.22266 L 227.55469 142.22266 L 221.86719 142.22266 L 221.86719 136.5332 L 216.17773 136.5332 L 216.17773 130.84375 L 210.48828 130.84375 L 210.48828 125.15625 L 204.80078 125.15625 L 204.80078 119.4668 L 199.11133 119.4668 L 199.11133 113.77734 L 199.11133 108.08984 L 199.11133 102.40039 L 193.42188 102.40039 L 193.42188 108.08984 L 187.73242 108.08984 L 187.73242 113.77734 L 193.42188 113.77734 L 193.42188 119.4668 L 193.42188 125.15625 z M 216.17773 130.84375 L 221.86719 130.84375 L 227.55469 130.84375 L 227.55469 125.15625 L 233.24414 125.15625 L 233.24414 119.4668 L 227.55469 119.4668 L 221.86719 119.4668 L 221.86719 113.77734 L 216.17773 113.77734 L 210.48828 113.77734 L 210.48828 119.4668 L 216.17773 119.4668 L 216.17773 125.15625 L 216.17773 130.84375 z M 210.48828 113.77734 L 210.48828 108.08984 L 204.80078 108.08984 L 204.80078 113.77734 L 210.48828 113.77734 z M 210.48828 108.08984 L 216.17773 108.08984 L 221.86719 108.08984 L 221.86719 102.40039 L 221.86719 96.710938 L 216.17773 96.710938 L 216.17773 102.40039 L 210.48828 102.40039 L 210.48828 108.08984 z M 210.48828 102.40039 L 210.48828 96.710938 L 210.48828 91.021484 L 204.80078 91.021484 L 199.11133 91.021484 L 199.11133 96.710938 L 204.80078 96.710938 L 204.80078 102.40039 L 210.48828 102.40039 z M 221.86719 96.710938 L 227.55469 96.710938 L 227.55469 102.40039 L 227.55469 108.08984 L 227.55469 113.77734 L 233.24414 113.77734 L 233.24414 108.08984 L 233.24414 102.40039 L 233.24414 96.710938 L 233.24414 91.021484 L 233.24414 85.333984 L 227.55469 85.333984 L 227.55469 91.021484 L 221.86719 91.021484 L 221.86719 96.710938 z M 221.86719 91.021484 L 221.86719 85.333984 L 216.17773 85.333984 L 216.17773 91.021484 L 221.86719 91.021484 z M 216.17773 85.333984 L 216.17773 79.644531 L 221.86719 79.644531 L 227.55469 79.644531 L 227.55469 73.955078 L 221.86719 73.955078 L 216.17773 73.955078 L 210.48828 73.955078 L 210.48828 79.644531 L 204.80078 79.644531 L 204.80078 85.333984 L 210.48828 85.333984 L 216.17773 85.333984 z M 210.48828 73.955078 L 210.48828 68.267578 L 204.80078 68.267578 L 204.80078 73.955078 L 210.48828 73.955078 z M 227.55469 73.955078 L 233.24414 73.955078 L 233.24414 68.267578 L 227.55469 68.267578 L 227.55469 73.955078 z M 227.55469 130.84375 L 227.55469 136.5332 L 233.24414 136.5332 L 233.24414 130.84375 L 227.55469 130.84375 z M 210.48828 147.91016 L 204.80078 147.91016 L 199.11133 147.91016 L 199.11133 153.59961 L 204.80078 153.59961 L 204.80078 159.28906 L 199.11133 159.28906 L 199.11133 153.59961 L 193.42188 153.59961 L 187.73242 153.59961 L 187.73242 159.28906 L 193.42188 159.28906 L 193.42188 164.97852 L 199.11133 164.97852 L 204.80078 164.97852 L 204.80078 170.66602 L 199.11133 170.66602 L 199.11133 176.35547 L 204.80078 176.35547 L 210.48828 176.35547 L 210.48828 170.66602 L 216.17773 170.66602 L 216.17773 164.97852 L 210.48828 164.97852 L 210.48828 159.28906 L 210.48828 153.59961 L 210.48828 147.91016 z M 216.17773 170.66602 L 216.17773 176.35547 L 210.48828 176.35547 L 210.48828 182.04492 L 204.80078 182.04492 L 199.11133 182.04492 L 193.42188 182.04492 L 193.42188 176.35547 L 193.42188 170.66602 L 193.42188 164.97852 L 187.73242 164.97852 L 187.73242 170.66602 L 187.73242 176.35547 L 182.04492 176.35547 L 176.35547 176.35547 L 176.35547 170.66602 L 170.66602 170.66602 L 170.66602 164.97852 L 176.35547 164.97852 L 176.35547 159.28906 L 182.04492 159.28906 L 182.04492 153.59961 L 176.35547 153.59961 L 176.35547 147.91016 L 170.66602 147.91016 L 164.97852 147.91016 L 164.97852 153.59961 L 170.66602 153.59961 L 170.66602 159.28906 L 164.97852 159.28906 L 164.97852 164.97852 L 159.28906 164.97852 L 153.59961 164.97852 L 147.91016 164.97852 L 147.91016 170.66602 L 142.22266 170.66602 L 142.22266 176.35547 L 142.22266 182.04492 L 136.5332 182.04492 L 136.5332 187.73242 L 142.22266 187.73242 L 147.91016 187.73242 L 147.91016 193.42188 L 153.59961 193.42188 L 153.59961 187.73242 L 153.59961 182.04492 L 159.28906 182.04492 L 159.28906 176.35547 L 153.59961 176.35547 L 153.59961 170.66602 L 159.28906 170.66602 L 164.97852 170.66602 L 164.97852 176.35547 L 164.97852 182.04492 L 164.97852 187.73242 L 170.66602 187.73242 L 176.35547 187.73242 L 176.35547 193.42188 L 170.66602 193.42188 L 170.66602 199.11133 L 176.35547 199.11133 L 176.35547 204.80078 L 170.66602 204.80078 L 164.97852 204.80078 L 164.97852 210.48828 L 159.28906 210.48828 L 159.28906 204.80078 L 159.28906 199.11133 L 153.59961 199.11133 L 147.91016 199.11133 L 147.91016 204.80078 L 142.22266 204.80078 L 142.22266 210.48828 L 147.91016 210.48828 L 147.91016 216.17773 L 147.91016 221.86719 L 153.59961 221.86719 L 153.59961 227.55469 L 153.59961 233.24414 L 159.28906 233.24414 L 159.28906 227.55469 L 164.97852 227.55469 L 164.97852 221.86719 L 170.66602 221.86719 L 176.35547 221.86719 L 176.35547 227.55469 L 182.04492 227.55469 L 187.73242 227.55469 L 187.73242 221.86719 L 193.42188 221.86719 L 193.42188 216.17773 L 187.73242 216.17773 L 182.04492 216.17773 L 176.35547 216.17773 L 170.66602 216.17773 L 170.66602 210.48828 L 176.35547 210.48828 L 182.04492 210.48828 L 187.73242 210.48828 L 193.42188 210.48828 L 193.42188 216.17773 L 199.11133 216.17773 L 199.11133 221.86719 L 204.80078 221.86719 L 204.80078 227.55469 L 204.80078 233.24414 L 210.48828 233.24414 L 210.48828 227.55469 L 216.17773 227.55469 L 221.86719 227.55469 L 227.55469 227.55469 L 227.55469 233.24414 L 233.24414 233.24414 L 233.24414 227.55469 L 233.24414 221.86719 L 233.24414 216.17773 L 227.55469 216.17773 L 221.86719 216.17773 L 216.17773 216.17773 L 216.17773 221.86719 L 210.48828 221.86719 L 210.48828 216.17773 L 204.80078 216.17773 L 204.80078 210.48828 L 210.48828 210.48828 L 210.48828 204.80078 L 216.17773 204.80078 L 216.17773 199.11133 L 221.86719 199.11133 L 221.86719 193.42188 L 216.17773 193.42188 L 216.17773 187.73242 L 221.86719 187.73242 L 221.86719 182.04492 L 227.55469 182.04492 L 233.24414 182.04492 L 233.24414 176.35547 L 233.24414 170.66602 L 227.55469 170.66602 L 221.86719 170.66602 L 216.17773 170.66602 z M 221.86719 187.73242 L 221.86719 193.42188 L 227.55469 193.42188 L 233.24414 193.42188 L 233.24414 187.73242 L 227.55469 187.73242 L 221.86719 187.73242 z M 221.86719 199.11133 L 221.86719 204.80078 L 221.86719 210.48828 L 227.55469 210.48828 L 227.55469 204.80078 L 227.55469 199.11133 L 221.86719 199.11133 z M 210.48828 210.48828 L 210.48828 216.17773 L 216.17773 216.17773 L 216.17773 210.48828 L 210.48828 210.48828 z M 147.91016 221.86719 L 142.22266 221.86719 L 142.22266 227.55469 L 147.91016 227.55469 L 147.91016 221.86719 z M 142.22266 221.86719 L 142.22266 216.17773 L 136.5332 216.17773 L 130.84375 216.17773 L 130.84375 221.86719 L 130.84375 227.55469 L 136.5332 227.55469 L 136.5332 221.86719 L 142.22266 221.86719 z M 159.28906 199.11133 L 164.97852 199.11133 L 164.97852 193.42188 L 159.28906 193.42188 L 159.28906 199.11133 z M 136.5332 182.04492 L 136.5332 176.35547 L 130.84375 176.35547 L 130.84375 170.66602 L 130.84375 164.97852 L 125.15625 164.97852 L 125.15625 170.66602 L 119.4668 170.66602 L 119.4668 164.97852 L 119.4668 159.28906 L 113.77734 159.28906 L 113.77734 164.97852 L 113.77734 170.66602 L 113.77734 176.35547 L 119.4668 176.35547 L 119.4668 182.04492 L 113.77734 182.04492 L 113.77734 187.73242 L 119.4668 187.73242 L 119.4668 193.42188 L 125.15625 193.42188 L 125.15625 187.73242 L 125.15625 182.04492 L 130.84375 182.04492 L 136.5332 182.04492 z M 119.4668 193.42188 L 113.77734 193.42188 L 113.77734 199.11133 L 108.08984 199.11133 L 108.08984 193.42188 L 102.40039 193.42188 L 102.40039 199.11133 L 102.40039 204.80078 L 96.710938 204.80078 L 96.710938 210.48828 L 96.710938 216.17773 L 102.40039 216.17773 L 102.40039 221.86719 L 108.08984 221.86719 L 113.77734 221.86719 L 113.77734 227.55469 L 113.77734 233.24414 L 119.4668 233.24414 L 119.4668 227.55469 L 125.15625 227.55469 L 125.15625 221.86719 L 125.15625 216.17773 L 125.15625 210.48828 L 130.84375 210.48828 L 130.84375 204.80078 L 130.84375 199.11133 L 125.15625 199.11133 L 125.15625 204.80078 L 119.4668 204.80078 L 119.4668 210.48828 L 113.77734 210.48828 L 113.77734 216.17773 L 108.08984 216.17773 L 108.08984 210.48828 L 108.08984 204.80078 L 113.77734 204.80078 L 119.4668 204.80078 L 119.4668 199.11133 L 119.4668 193.42188 z M 130.84375 199.11133 L 136.5332 199.11133 L 142.22266 199.11133 L 142.22266 193.42188 L 136.5332 193.42188 L 130.84375 193.42188 L 130.84375 199.11133 z M 102.40039 221.86719 L 96.710938 221.86719 L 96.710938 216.17773 L 91.021484 216.17773 L 91.021484 210.48828 L 85.333984 210.48828 L 85.333984 216.17773 L 85.333984 221.86719 L 85.333984 227.55469 L 91.021484 227.55469 L 91.021484 233.24414 L 96.710938 233.24414 L 96.710938 227.55469 L 102.40039 227.55469 L 102.40039 221.86719 z M 102.40039 193.42188 L 102.40039 187.73242 L 96.710938 187.73242 L 91.021484 187.73242 L 91.021484 193.42188 L 85.333984 193.42188 L 85.333984 199.11133 L 91.021484 199.11133 L 96.710938 199.11133 L 96.710938 193.42188 L 102.40039 193.42188 z M 130.84375 164.97852 L 136.5332 164.97852 L 136.5332 159.28906 L 130.84375 159.28906 L 130.84375 164.97852 z M 182.04492 159.28906 L 182.04492 164.97852 L 187.73242 164.97852 L 187.73242 159.28906 L 182.04492 159.28906 z M 130.84375 147.91016 L 125.15625 147.91016 L 125.15625 153.59961 L 130.84375 153.59961 L 130.84375 147.91016 z M 130.84375 142.22266 L 130.84375 136.5332 L 125.15625 136.5332 L 125.15625 130.84375 L 119.4668 130.84375 L 119.4668 136.5332 L 119.4668 142.22266 L 125.15625 142.22266 L 130.84375 142.22266 z M 119.4668 130.84375 L 119.4668 125.15625 L 113.77734 125.15625 L 113.77734 119.4668 L 108.08984 119.4668 L 102.40039 119.4668 L 102.40039 125.15625 L 108.08984 125.15625 L 108.08984 130.84375 L 113.77734 130.84375 L 119.4668 130.84375 z M 136.5332 130.84375 L 136.5332 125.15625 L 142.22266 125.15625 L 147.91016 125.15625 L 147.91016 119.4668 L 147.91016 113.77734 L 153.59961 113.77734 L 153.59961 108.08984 L 147.91016 108.08984 L 142.22266 108.08984 L 142.22266 102.40039 L 147.91016 102.40039 L 153.59961 102.40039 L 153.59961 96.710938 L 159.28906 96.710938 L 159.28906 91.021484 L 153.59961 91.021484 L 147.91016 91.021484 L 147.91016 96.710938 L 142.22266 96.710938 L 136.5332 96.710938 L 136.5332 102.40039 L 130.84375 102.40039 L 130.84375 108.08984 L 136.5332 108.08984 L 136.5332 113.77734 L 142.22266 113.77734 L 142.22266 119.4668 L 136.5332 119.4668 L 130.84375 119.4668 L 130.84375 125.15625 L 130.84375 130.84375 L 136.5332 130.84375 z M 130.84375 119.4668 L 130.84375 113.77734 L 125.15625 113.77734 L 119.4668 113.77734 L 119.4668 119.4668 L 125.15625 119.4668 L 130.84375 119.4668 z M 147.91016 91.021484 L 147.91016 85.333984 L 147.91016 79.644531 L 147.91016 73.955078 L 142.22266 73.955078 L 142.22266 79.644531 L 142.22266 85.333984 L 142.22266 91.021484 L 147.91016 91.021484 z M 159.28906 96.710938 L 159.28906 102.40039 L 164.97852 102.40039 L 164.97852 96.710938 L 159.28906 96.710938 z M 159.28906 102.40039 L 153.59961 102.40039 L 153.59961 108.08984 L 159.28906 108.08984 L 159.28906 102.40039 z M 159.28906 108.08984 L 159.28906 113.77734 L 159.28906 119.4668 L 164.97852 119.4668 L 164.97852 113.77734 L 164.97852 108.08984 L 159.28906 108.08984 z M 147.91016 125.15625 L 147.91016 130.84375 L 153.59961 130.84375 L 153.59961 125.15625 L 147.91016 125.15625 z M 102.40039 142.22266 L 108.08984 142.22266 L 108.08984 136.5332 L 102.40039 136.5332 L 102.40039 142.22266 z M 108.08984 153.59961 L 113.77734 153.59961 L 119.4668 153.59961 L 119.4668 147.91016 L 113.77734 147.91016 L 108.08984 147.91016 L 108.08984 153.59961 z M 96.710938 159.28906 L 91.021484 159.28906 L 91.021484 164.97852 L 96.710938 164.97852 L 96.710938 159.28906 z M 96.710938 164.97852 L 96.710938 170.66602 L 91.021484 170.66602 L 91.021484 176.35547 L 96.710938 176.35547 L 96.710938 182.04492 L 102.40039 182.04492 L 108.08984 182.04492 L 108.08984 176.35547 L 102.40039 176.35547 L 102.40039 170.66602 L 102.40039 164.97852 L 96.710938 164.97852 z M 62.578125 182.04492 L 56.888672 182.04492 L 51.199219 182.04492 L 51.199219 176.35547 L 51.199219 170.66602 L 56.888672 170.66602 L 56.888672 164.97852 L 51.199219 164.97852 L 45.511719 164.97852 L 45.511719 159.28906 L 39.822266 159.28906 L 34.132812 159.28906 L 34.132812 153.59961 L 34.132812 147.91016 L 28.445312 147.91016 L 28.445312 153.59961 L 28.445312 159.28906 L 28.445312 164.97852 L 34.132812 164.97852 L 39.822266 164.97852 L 39.822266 170.66602 L 34.132812 170.66602 L 34.132812 176.35547 L 34.132812 182.04492 L 39.822266 182.04492 L 39.822266 187.73242 L 45.511719 187.73242 L 51.199219 187.73242 L 56.888672 187.73242 L 62.578125 187.73242 L 62.578125 182.04492 z M 34.132812 147.91016 L 39.822266 147.91016 L 39.822266 142.22266 L 34.132812 142.22266 L 34.132812 147.91016 z M 45.511719 159.28906 L 51.199219 159.28906 L 51.199219 153.59961 L 45.511719 153.59961 L 45.511719 159.28906 z M 56.888672 164.97852 L 62.578125 164.97852 L 62.578125 159.28906 L 56.888672 159.28906 L 56.888672 164.97852 z M 62.578125 159.28906 L 68.267578 159.28906 L 68.267578 153.59961 L 62.578125 153.59961 L 62.578125 159.28906 z M 62.578125 153.59961 L 62.578125 147.91016 L 56.888672 147.91016 L 56.888672 153.59961 L 62.578125 153.59961 z M 79.644531 153.59961 L 79.644531 147.91016 L 79.644531 142.22266 L 73.955078 142.22266 L 73.955078 147.91016 L 73.955078 153.59961 L 79.644531 153.59961 z M 56.888672 136.5332 L 56.888672 130.84375 L 51.199219 130.84375 L 51.199219 136.5332 L 56.888672 136.5332 z M 51.199219 136.5332 L 45.511719 136.5332 L 45.511719 142.22266 L 51.199219 142.22266 L 51.199219 136.5332 z M 34.132812 130.84375 L 28.445312 130.84375 L 22.755859 130.84375 L 22.755859 136.5332 L 22.755859 142.22266 L 28.445312 142.22266 L 28.445312 136.5332 L 34.132812 136.5332 L 34.132812 130.84375 z M 73.955078 56.888672 L 79.644531 56.888672 L 79.644531 51.199219 L 73.955078 51.199219 L 73.955078 56.888672 z M 73.955078 51.199219 L 73.955078 45.511719 L 68.267578 45.511719 L 68.267578 51.199219 L 73.955078 51.199219 z M 153.59961 22.755859 L 153.59961 28.445312 L 159.28906 28.445312 L 159.28906 22.755859 L 153.59961 22.755859 z M 164.97852 22.755859 L 164.97852 28.445312 L 170.66602 28.445312 L 170.66602 22.755859 L 164.97852 22.755859 z M 182.04492 22.755859 L 182.04492 28.445312 L 182.04492 34.132812 L 187.73242 34.132812 L 187.73242 28.445312 L 187.73242 22.755859 L 182.04492 22.755859 z M 193.42188 22.755859 L 193.42188 28.445312 L 193.42188 34.132812 L 193.42188 39.822266 L 193.42188 45.511719 L 193.42188 51.199219 L 193.42188 56.888672 L 193.42188 62.578125 L 199.11133 62.578125 L 204.80078 62.578125 L 210.48828 62.578125 L 216.17773 62.578125 L 221.86719 62.578125 L 227.55469 62.578125 L 233.24414 62.578125 L 233.24414 56.888672 L 233.24414 51.199219 L 233.24414 45.511719 L 233.24414 39.822266 L 233.24414 34.132812 L 233.24414 28.445312 L 233.24414 22.755859 L 227.55469 22.755859 L 221.86719 22.755859 L 216.17773 22.755859 L 210.48828 22.755859 L 204.80078 22.755859 L 199.11133 22.755859 L 193.42188 22.755859 z M 28.445312 28.445312 L 34.132812 28.445312 L 39.822266 28.445312 L 45.511719 28.445312 L 51.199219 28.445312 L 56.888672 28.445312 L 56.888672 34.132812 L 56.888672 39.822266 L 56.888672 45.511719 L 56.888672 51.199219 L 56.888672 56.888672 L 51.199219 56.888672 L 45.511719 56.888672 L 39.822266 56.888672 L 34.132812 56.888672 L 28.445312 56.888672 L 28.445312 51.199219 L 28.445312 45.511719 L 28.445312 39.822266 L 28.445312 34.132812 L 28.445312 28.445312 z M 199.11133 28.445312 L 204.80078 28.445312 L 210.48828 28.445312 L 216.17773 28.445312 L 221.86719 28.445312 L 227.55469 28.445312 L 227.55469 34.132812 L 227.55469 39.822266 L 227.55469 45.511719 L 227.55469 51.199219 L 227.55469 56.888672 L 221.86719 56.888672 L 216.17773 56.888672 L 210.48828 56.888672 L 204.80078 56.888672 L 199.11133 56.888672 L 199.11133 51.199219 L 199.11133 45.511719 L 199.11133 39.822266 L 199.11133 34.132812 L 199.11133 28.445312 z M 34.132812 34.132812 L 34.132812 39.822266 L 34.132812 45.511719 L 34.132812 51.199219 L 39.822266 51.199219 L 45.511719 51.199219 L 51.199219 51.199219 L 51.199219 45.511719 L 51.199219 39.822266 L 51.199219 34.132812 L 45.511719 34.132812 L 39.822266 34.132812 L 34.132812 34.132812 z M 164.97852 34.132812 L 164.97852 39.822266 L 170.66602 39.822266 L 176.35547 39.822266 L 176.35547 34.132812 L 170.66602 34.132812 L 164.97852 34.132812 z M 204.80078 34.132812 L 204.80078 39.822266 L 204.80078 45.511719 L 204.80078 51.199219 L 210.48828 51.199219 L 216.17773 51.199219 L 221.86719 51.199219 L 221.86719 45.511719 L 221.86719 39.822266 L 221.86719 34.132812 L 216.17773 34.132812 L 210.48828 34.132812 L 204.80078 34.132812 z M 22.755859 68.267578 L 22.755859 73.955078 L 28.445312 73.955078 L 28.445312 68.267578 L 22.755859 68.267578 z M 28.445312 73.955078 L 28.445312 79.644531 L 34.132812 79.644531 L 34.132812 73.955078 L 28.445312 73.955078 z M 28.445312 79.644531 L 22.755859 79.644531 L 22.755859 85.333984 L 28.445312 85.333984 L 28.445312 79.644531 z M 68.267578 85.333984 L 68.267578 91.021484 L 73.955078 91.021484 L 73.955078 85.333984 L 68.267578 85.333984 z M 56.888672 102.40039 L 56.888672 108.08984 L 62.578125 108.08984 L 62.578125 102.40039 L 56.888672 102.40039 z M 22.755859 170.66602 L 22.755859 176.35547 L 22.755859 182.04492 L 22.755859 187.73242 L 28.445312 187.73242 L 28.445312 182.04492 L 28.445312 176.35547 L 28.445312 170.66602 L 22.755859 170.66602 z M 187.73242 187.73242 L 193.42188 187.73242 L 199.11133 187.73242 L 204.80078 187.73242 L 204.80078 193.42188 L 204.80078 199.11133 L 204.80078 204.80078 L 199.11133 204.80078 L 193.42188 204.80078 L 187.73242 204.80078 L 187.73242 199.11133 L 187.73242 193.42188 L 187.73242 187.73242 z M 22.755859 193.42188 L 22.755859 199.11133 L 22.755859 204.80078 L 22.755859 210.48828 L 22.755859 216.17773 L 22.755859 221.86719 L 22.755859 227.55469 L 22.755859 233.24414 L 28.445312 233.24414 L 34.132812 233.24414 L 39.822266 233.24414 L 45.511719 233.24414 L 51.199219 233.24414 L 56.888672 233.24414 L 62.578125 233.24414 L 62.578125 227.55469 L 62.578125 221.86719 L 62.578125 216.17773 L 62.578125 210.48828 L 62.578125 204.80078 L 62.578125 199.11133 L 62.578125 193.42188 L 56.888672 193.42188 L 51.199219 193.42188 L 45.511719 193.42188 L 39.822266 193.42188 L 34.132812 193.42188 L 28.445312 193.42188 L 22.755859 193.42188 z M 193.42188 193.42188 L 193.42188 199.11133 L 199.11133 199.11133 L 199.11133 193.42188 L 193.42188 193.42188 z M 28.445312 199.11133 L 34.132812 199.11133 L 39.822266 199.11133 L 45.511719 199.11133 L 51.199219 199.11133 L 56.888672 199.11133 L 56.888672 204.80078 L 56.888672 210.48828 L 56.888672 216.17773 L 56.888672 221.86719 L 56.888672 227.55469 L 51.199219 227.55469 L 45.511719 227.55469 L 39.822266 227.55469 L 34.132812 227.55469 L 28.445312 227.55469 L 28.445312 221.86719 L 28.445312 216.17773 L 28.445312 210.48828 L 28.445312 204.80078 L 28.445312 199.11133 z M 34.132812 204.80078 L 34.132812 210.48828 L 34.132812 216.17773 L 34.132812 221.86719 L 39.822266 221.86719 L 45.511719 221.86719 L 51.199219 221.86719 L 51.199219 216.17773 L 51.199219 210.48828 L 51.199219 204.80078 L 45.511719 204.80078 L 39.822266 204.80078 L 34.132812 204.80078 z M 73.955078 221.86719 L 73.955078 227.55469 L 79.644531 227.55469 L 79.644531 221.86719 L 73.955078 221.86719 z M 73.955078 227.55469 L 68.267578 227.55469 L 68.267578 233.24414 L 73.955078 233.24414 L 73.955078 227.55469 z "
     id="rect4" />
</svg>
