<?xml version="1.0" encoding="UTF-8" standalone="no"?>
<svg
   xmlns:dc="http://purl.org/dc/elements/1.1/"
   xmlns:cc="http://creativecommons.org/ns#"
   xmlns:rdf="http://www.w3.org/1999/02/22-rdf-syntax-ns#"
   xmlns:svg="http://www.w3.org/2000/svg"
   xmlns="http://www.w3.org/2000/svg"
   xmlns:sodipodi="http://sodipodi.sourceforge.net/DTD/sodipodi-0.dtd"
   xmlns:inkscape="http://www.inkscape.org/namespaces/inkscape"
   version="1.1"
   width="256"
   height="256"
   id="svg848"
   sodipodi:docname="studip.svg"
   inkscape:version="0.92.2 5c3e80d, 2017-08-06">
  <metadata
     id="metadata854">
    <rdf:RDF>
      <cc:Work
         rdf:about="">
        <dc:format>image/svg+xml</dc:format>
        <dc:type
           rdf:resource="http://purl.org/dc/dcmitype/StillImage" />
      </cc:Work>
    </rdf:RDF>
  </metadata>
  <defs
     id="defs852" />
  <sodipodi:namedview
     pagecolor="#ffffff"
     bordercolor="#666666"
     borderopacity="1"
     objecttolerance="10"
     gridtolerance="10"
     guidetolerance="10"
     inkscape:pageopacity="0"
     inkscape:pageshadow="2"
     inkscape:window-width="1039"
     inkscape:window-height="771"
     id="namedview850"
     showgrid="false"
     inkscape:zoom="0.921875"
     inkscape:cx="-13.016949"
     inkscape:cy="128"
     inkscape:window-x="69"
     inkscape:window-y="0"
     inkscape:window-maximized="0"
     inkscape:current-layer="svg848" />
  <path
     style="fill:#000000;shape-rendering:crispEdges;"
     d="M 27.675781 27.675781 L 27.675781 34.59375 L 27.675781 41.513672 L 27.675781 48.431641 L 27.675781 55.351562 L 27.675781 62.269531 L 27.675781 69.189453 L 27.675781 76.107422 L 34.59375 76.107422 L 41.513672 76.107422 L 48.431641 76.107422 L 55.351562 76.107422 L 62.269531 76.107422 L 69.189453 76.107422 L 76.107422 76.107422 L 76.107422 69.189453 L 76.107422 62.269531 L 76.107422 55.351562 L 76.107422 48.431641 L 76.107422 41.513672 L 76.107422 34.59375 L 76.107422 27.675781 L 69.189453 27.675781 L 62.269531 27.675781 L 55.351562 27.675781 L 48.431641 27.675781 L 41.513672 27.675781 L 34.59375 27.675781 L 27.675781 27.675781 z M 83.027344 27.675781 L 83.027344 34.59375 L 89.945312 34.59375 L 96.865234 34.59375 L 103.7832 34.59375 L 103.7832 41.513672 L 96.865234 41.513672 L 89.945312 41.513672 L 83.027344 41.513672 L 83.027344 48.431641 L 83.027344 55.351562 L 89.945312 55.351562 L 89.945312 48.431641 L 96.865234 48.431641 L 96.865234 55.351562 L 103.7832 55.351562 L 103.7832 48.431641 L 110.70312 48.431641 L 110.70312 41.513672 L 117.62109 41.513672 L 117.62109 34.59375 L 110.70312 34.59375 L 110.70312 27.675781 L 103.7832 27.675781 L 96.865234 27.675781 L 89.945312 27.675781 L 83.027344 27.675781 z M 124.54102 27.675781 L 124.54102 34.59375 L 131.45898 34.59375 L 131.45898 41.513672 L 124.54102 41.513672 L 124.54102 48.431641 L 131.45898 48.431641 L 131.45898 55.351562 L 138.37891 55.351562 L 145.29688 55.351562 L 145.29688 62.269531 L 152.2168 62.269531 L 152.2168 55.351562 L 152.2168 48.431641 L 145.29688 48.431641 L 138.37891 48.431641 L 138.37891 41.513672 L 138.37891 34.59375 L 138.37891 27.675781 L 131.45898 27.675781 L 124.54102 27.675781 z M 152.2168 48.431641 L 159.13477 48.431641 L 159.13477 41.513672 L 152.2168 41.513672 L 152.2168 48.431641 z M 159.13477 48.431641 L 159.13477 55.351562 L 166.05469 55.351562 L 166.05469 48.431641 L 159.13477 48.431641 z M 166.05469 48.431641 L 172.97266 48.431641 L 172.97266 41.513672 L 172.97266 34.59375 L 166.05469 34.59375 L 166.05469 41.513672 L 166.05469 48.431641 z M 152.2168 62.269531 L 152.2168 69.189453 L 152.2168 76.107422 L 145.29688 76.107422 L 145.29688 83.027344 L 152.2168 83.027344 L 152.2168 89.945312 L 159.13477 89.945312 L 166.05469 89.945312 L 172.97266 89.945312 L 172.97266 96.865234 L 179.89258 96.865234 L 186.81055 96.865234 L 193.73047 96.865234 L 193.73047 89.945312 L 193.73047 83.027344 L 186.81055 83.027344 L 179.89258 83.027344 L 172.97266 83.027344 L 172.97266 76.107422 L 172.97266 69.189453 L 166.05469 69.189453 L 166.05469 76.107422 L 166.05469 83.027344 L 159.13477 83.027344 L 159.13477 76.107422 L 159.13477 69.189453 L 159.13477 62.269531 L 152.2168 62.269531 z M 193.73047 96.865234 L 193.73047 103.7832 L 193.73047 110.70312 L 200.64844 110.70312 L 200.64844 103.7832 L 207.56836 103.7832 L 207.56836 110.70312 L 207.56836 117.62109 L 207.56836 124.54102 L 200.64844 124.54102 L 193.73047 124.54102 L 193.73047 131.45898 L 200.64844 131.45898 L 200.64844 138.37891 L 207.56836 138.37891 L 207.56836 131.45898 L 214.48633 131.45898 L 221.40625 131.45898 L 221.40625 124.54102 L 228.32422 124.54102 L 228.32422 117.62109 L 228.32422 110.70312 L 221.40625 110.70312 L 214.48633 110.70312 L 214.48633 103.7832 L 221.40625 103.7832 L 228.32422 103.7832 L 228.32422 96.865234 L 228.32422 89.945312 L 228.32422 83.027344 L 221.40625 83.027344 L 221.40625 89.945312 L 214.48633 89.945312 L 214.48633 96.865234 L 207.56836 96.865234 L 207.56836 89.945312 L 214.48633 89.945312 L 214.48633 83.027344 L 207.56836 83.027344 L 200.64844 83.027344 L 200.64844 89.945312 L 200.64844 96.865234 L 193.73047 96.865234 z M 193.73047 131.45898 L 186.81055 131.45898 L 186.81055 138.37891 L 193.73047 138.37891 L 193.73047 131.45898 z M 172.97266 96.865234 L 166.05469 96.865234 L 159.13477 96.865234 L 152.2168 96.865234 L 152.2168 103.7832 L 145.29688 103.7832 L 145.29688 96.865234 L 138.37891 96.865234 L 131.45898 96.865234 L 131.45898 103.7832 L 124.54102 103.7832 L 124.54102 110.70312 L 124.54102 117.62109 L 131.45898 117.62109 L 131.45898 124.54102 L 138.37891 124.54102 L 138.37891 117.62109 L 145.29688 117.62109 L 145.29688 110.70312 L 152.2168 110.70312 L 152.2168 117.62109 L 159.13477 117.62109 L 166.05469 117.62109 L 166.05469 124.54102 L 172.97266 124.54102 L 172.97266 131.45898 L 179.89258 131.45898 L 179.89258 124.54102 L 186.81055 124.54102 L 186.81055 117.62109 L 186.81055 110.70312 L 179.89258 110.70312 L 179.89258 117.62109 L 172.97266 117.62109 L 172.97266 110.70312 L 172.97266 103.7832 L 172.97266 96.865234 z M 152.2168 117.62109 L 145.29688 117.62109 L 145.29688 124.54102 L 152.2168 124.54102 L 152.2168 117.62109 z M 131.45898 124.54102 L 124.54102 124.54102 L 124.54102 131.45898 L 131.45898 131.45898 L 131.45898 124.54102 z M 131.45898 131.45898 L 131.45898 138.37891 L 131.45898 145.29688 L 138.37891 145.29688 L 138.37891 138.37891 L 138.37891 131.45898 L 131.45898 131.45898 z M 124.54102 124.54102 L 124.54102 117.62109 L 117.62109 117.62109 L 117.62109 124.54102 L 124.54102 124.54102 z M 124.54102 103.7832 L 124.54102 96.865234 L 117.62109 96.865234 L 117.62109 103.7832 L 124.54102 103.7832 z M 117.62109 103.7832 L 110.70312 103.7832 L 110.70312 110.70312 L 117.62109 110.70312 L 117.62109 103.7832 z M 110.70312 110.70312 L 103.7832 110.70312 L 103.7832 103.7832 L 96.865234 103.7832 L 96.865234 110.70312 L 89.945312 110.70312 L 89.945312 117.62109 L 96.865234 117.62109 L 103.7832 117.62109 L 103.7832 124.54102 L 96.865234 124.54102 L 96.865234 131.45898 L 89.945312 131.45898 L 89.945312 138.37891 L 83.027344 138.37891 L 83.027344 145.29688 L 76.107422 145.29688 L 76.107422 152.2168 L 69.189453 152.2168 L 69.189453 159.13477 L 76.107422 159.13477 L 83.027344 159.13477 L 83.027344 166.05469 L 89.945312 166.05469 L 89.945312 172.97266 L 89.945312 179.89258 L 83.027344 179.89258 L 83.027344 186.81055 L 89.945312 186.81055 L 89.945312 193.73047 L 89.945312 200.64844 L 96.865234 200.64844 L 96.865234 193.73047 L 103.7832 193.73047 L 110.70312 193.73047 L 110.70312 186.81055 L 110.70312 179.89258 L 110.70312 172.97266 L 103.7832 172.97266 L 103.7832 179.89258 L 96.865234 179.89258 L 96.865234 172.97266 L 103.7832 172.97266 L 103.7832 166.05469 L 96.865234 166.05469 L 96.865234 159.13477 L 96.865234 152.2168 L 89.945312 152.2168 L 89.945312 145.29688 L 96.865234 145.29688 L 96.865234 138.37891 L 103.7832 138.37891 L 110.70312 138.37891 L 110.70312 131.45898 L 110.70312 124.54102 L 110.70312 117.62109 L 110.70312 110.70312 z M 110.70312 172.97266 L 117.62109 172.97266 L 117.62109 166.05469 L 110.70312 166.05469 L 110.70312 172.97266 z M 117.62109 166.05469 L 124.54102 166.05469 L 131.45898 166.05469 L 138.37891 166.05469 L 138.37891 159.13477 L 145.29688 159.13477 L 152.2168 159.13477 L 152.2168 152.2168 L 145.29688 152.2168 L 138.37891 152.2168 L 131.45898 152.2168 L 131.45898 159.13477 L 124.54102 159.13477 L 117.62109 159.13477 L 117.62109 166.05469 z M 152.2168 152.2168 L 159.13477 152.2168 L 159.13477 159.13477 L 166.05469 159.13477 L 172.97266 159.13477 L 179.89258 159.13477 L 179.89258 166.05469 L 172.97266 166.05469 L 166.05469 166.05469 L 166.05469 172.97266 L 166.05469 179.89258 L 159.13477 179.89258 L 152.2168 179.89258 L 152.2168 186.81055 L 159.13477 186.81055 L 166.05469 186.81055 L 166.05469 193.73047 L 166.05469 200.64844 L 166.05469 207.56836 L 159.13477 207.56836 L 152.2168 207.56836 L 152.2168 200.64844 L 145.29688 200.64844 L 145.29688 193.73047 L 138.37891 193.73047 L 138.37891 186.81055 L 131.45898 186.81055 L 131.45898 179.89258 L 124.54102 179.89258 L 124.54102 172.97266 L 117.62109 172.97266 L 117.62109 179.89258 L 117.62109 186.81055 L 124.54102 186.81055 L 124.54102 193.73047 L 131.45898 193.73047 L 131.45898 200.64844 L 138.37891 200.64844 L 138.37891 207.56836 L 145.29688 207.56836 L 145.29688 214.48633 L 138.37891 214.48633 L 131.45898 214.48633 L 131.45898 207.56836 L 124.54102 207.56836 L 117.62109 207.56836 L 117.62109 200.64844 L 110.70312 200.64844 L 110.70312 207.56836 L 110.70312 214.48633 L 117.62109 214.48633 L 117.62109 221.40625 L 117.62109 228.32422 L 124.54102 228.32422 L 131.45898 228.32422 L 131.45898 221.40625 L 138.37891 221.40625 L 145.29688 221.40625 L 152.2168 221.40625 L 152.2168 214.48633 L 159.13477 214.48633 L 166.05469 214.48633 L 172.97266 214.48633 L 172.97266 221.40625 L 172.97266 228.32422 L 179.89258 228.32422 L 179.89258 221.40625 L 186.81055 221.40625 L 186.81055 228.32422 L 193.73047 228.32422 L 193.73047 221.40625 L 200.64844 221.40625 L 200.64844 214.48633 L 200.64844 207.56836 L 193.73047 207.56836 L 193.73047 214.48633 L 186.81055 214.48633 L 179.89258 214.48633 L 179.89258 207.56836 L 186.81055 207.56836 L 193.73047 207.56836 L 193.73047 200.64844 L 200.64844 200.64844 L 200.64844 207.56836 L 207.56836 207.56836 L 207.56836 200.64844 L 207.56836 193.73047 L 200.64844 193.73047 L 200.64844 186.81055 L 200.64844 179.89258 L 207.56836 179.89258 L 214.48633 179.89258 L 214.48633 172.97266 L 207.56836 172.97266 L 207.56836 166.05469 L 207.56836 159.13477 L 200.64844 159.13477 L 200.64844 166.05469 L 193.73047 166.05469 L 193.73047 159.13477 L 193.73047 152.2168 L 186.81055 152.2168 L 186.81055 145.29688 L 179.89258 145.29688 L 179.89258 152.2168 L 172.97266 152.2168 L 172.97266 145.29688 L 179.89258 145.29688 L 179.89258 138.37891 L 172.97266 138.37891 L 166.05469 138.37891 L 159.13477 138.37891 L 159.13477 145.29688 L 152.2168 145.29688 L 152.2168 152.2168 z M 159.13477 138.37891 L 159.13477 131.45898 L 152.2168 131.45898 L 145.29688 131.45898 L 145.29688 138.37891 L 152.2168 138.37891 L 159.13477 138.37891 z M 193.73047 152.2168 L 200.64844 152.2168 L 200.64844 145.29688 L 193.73047 145.29688 L 193.73047 152.2168 z M 214.48633 172.97266 L 221.40625 172.97266 L 228.32422 172.97266 L 228.32422 166.05469 L 228.32422 159.13477 L 228.32422 152.2168 L 221.40625 152.2168 L 221.40625 159.13477 L 214.48633 159.13477 L 214.48633 166.05469 L 214.48633 172.97266 z M 207.56836 193.73047 L 214.48633 193.73047 L 221.40625 193.73047 L 228.32422 193.73047 L 228.32422 186.81055 L 221.40625 186.81055 L 214.48633 186.81055 L 207.56836 186.81055 L 207.56836 193.73047 z M 207.56836 207.56836 L 207.56836 214.48633 L 214.48633 214.48633 L 214.48633 207.56836 L 207.56836 207.56836 z M 214.48633 207.56836 L 221.40625 207.56836 L 228.32422 207.56836 L 228.32422 200.64844 L 221.40625 200.64844 L 214.48633 200.64844 L 214.48633 207.56836 z M 214.48633 214.48633 L 214.48633 221.40625 L 221.40625 221.40625 L 228.32422 221.40625 L 228.32422 214.48633 L 221.40625 214.48633 L 214.48633 214.48633 z M 214.48633 221.40625 L 207.56836 221.40625 L 200.64844 221.40625 L 200.64844 228.32422 L 207.56836 228.32422 L 214.48633 228.32422 L 214.48633 221.40625 z M 131.45898 179.89258 L 138.37891 179.89258 L 138.37891 172.97266 L 131.45898 172.97266 L 131.45898 179.89258 z M 138.37891 172.97266 L 145.29688 172.97266 L 152.2168 172.97266 L 159.13477 172.97266 L 159.13477 166.05469 L 152.2168 166.05469 L 145.29688 166.05469 L 138.37891 166.05469 L 138.37891 172.97266 z M 145.29688 193.73047 L 152.2168 193.73047 L 152.2168 186.81055 L 145.29688 186.81055 L 145.29688 193.73047 z M 152.2168 193.73047 L 152.2168 200.64844 L 159.13477 200.64844 L 159.13477 193.73047 L 152.2168 193.73047 z M 89.945312 200.64844 L 83.027344 200.64844 L 83.027344 207.56836 L 89.945312 207.56836 L 89.945312 200.64844 z M 83.027344 166.05469 L 76.107422 166.05469 L 69.189453 166.05469 L 69.189453 159.13477 L 62.269531 159.13477 L 62.269531 152.2168 L 69.189453 152.2168 L 69.189453 145.29688 L 62.269531 145.29688 L 55.351562 145.29688 L 55.351562 138.37891 L 48.431641 138.37891 L 48.431641 145.29688 L 48.431641 152.2168 L 55.351562 152.2168 L 55.351562 159.13477 L 55.351562 166.05469 L 62.269531 166.05469 L 62.269531 172.97266 L 69.189453 172.97266 L 76.107422 172.97266 L 83.027344 172.97266 L 83.027344 166.05469 z M 55.351562 166.05469 L 48.431641 166.05469 L 48.431641 159.13477 L 41.513672 159.13477 L 41.513672 166.05469 L 41.513672 172.97266 L 48.431641 172.97266 L 55.351562 172.97266 L 55.351562 166.05469 z M 41.513672 159.13477 L 41.513672 152.2168 L 34.59375 152.2168 L 34.59375 145.29688 L 34.59375 138.37891 L 41.513672 138.37891 L 48.431641 138.37891 L 48.431641 131.45898 L 48.431641 124.54102 L 48.431641 117.62109 L 41.513672 117.62109 L 41.513672 124.54102 L 34.59375 124.54102 L 34.59375 131.45898 L 27.675781 131.45898 L 27.675781 138.37891 L 27.675781 145.29688 L 27.675781 152.2168 L 27.675781 159.13477 L 27.675781 166.05469 L 27.675781 172.97266 L 34.59375 172.97266 L 34.59375 166.05469 L 34.59375 159.13477 L 41.513672 159.13477 z M 69.189453 145.29688 L 76.107422 145.29688 L 76.107422 138.37891 L 69.189453 138.37891 L 69.189453 145.29688 z M 89.945312 131.45898 L 89.945312 124.54102 L 89.945312 117.62109 L 83.027344 117.62109 L 83.027344 110.70312 L 89.945312 110.70312 L 89.945312 103.7832 L 83.027344 103.7832 L 76.107422 103.7832 L 76.107422 110.70312 L 69.189453 110.70312 L 69.189453 117.62109 L 76.107422 117.62109 L 76.107422 124.54102 L 69.189453 124.54102 L 62.269531 124.54102 L 62.269531 131.45898 L 69.189453 131.45898 L 76.107422 131.45898 L 83.027344 131.45898 L 89.945312 131.45898 z M 62.269531 124.54102 L 62.269531 117.62109 L 62.269531 110.70312 L 55.351562 110.70312 L 55.351562 117.62109 L 55.351562 124.54102 L 62.269531 124.54102 z M 55.351562 110.70312 L 55.351562 103.7832 L 48.431641 103.7832 L 48.431641 96.865234 L 41.513672 96.865234 L 34.59375 96.865234 L 27.675781 96.865234 L 27.675781 103.7832 L 34.59375 103.7832 L 34.59375 110.70312 L 41.513672 110.70312 L 48.431641 110.70312 L 55.351562 110.70312 z M 48.431641 96.865234 L 55.351562 96.865234 L 62.269531 96.865234 L 62.269531 89.945312 L 55.351562 89.945312 L 55.351562 83.027344 L 48.431641 83.027344 L 48.431641 89.945312 L 48.431641 96.865234 z M 62.269531 110.70312 L 69.189453 110.70312 L 69.189453 103.7832 L 62.269531 103.7832 L 62.269531 110.70312 z M 69.189453 103.7832 L 76.107422 103.7832 L 76.107422 96.865234 L 69.189453 96.865234 L 69.189453 103.7832 z M 103.7832 103.7832 L 110.70312 103.7832 L 110.70312 96.865234 L 117.62109 96.865234 L 117.62109 89.945312 L 117.62109 83.027344 L 110.70312 83.027344 L 110.70312 89.945312 L 103.7832 89.945312 L 103.7832 96.865234 L 103.7832 103.7832 z M 103.7832 89.945312 L 103.7832 83.027344 L 96.865234 83.027344 L 89.945312 83.027344 L 89.945312 89.945312 L 89.945312 96.865234 L 96.865234 96.865234 L 96.865234 89.945312 L 103.7832 89.945312 z M 89.945312 83.027344 L 89.945312 76.107422 L 89.945312 69.189453 L 89.945312 62.269531 L 83.027344 62.269531 L 83.027344 69.189453 L 83.027344 76.107422 L 83.027344 83.027344 L 89.945312 83.027344 z M 83.027344 83.027344 L 76.107422 83.027344 L 69.189453 83.027344 L 69.189453 89.945312 L 76.107422 89.945312 L 83.027344 89.945312 L 83.027344 83.027344 z M 103.7832 83.027344 L 110.70312 83.027344 L 110.70312 76.107422 L 103.7832 76.107422 L 103.7832 83.027344 z M 103.7832 76.107422 L 103.7832 69.189453 L 103.7832 62.269531 L 96.865234 62.269531 L 96.865234 69.189453 L 96.865234 76.107422 L 103.7832 76.107422 z M 110.70312 76.107422 L 117.62109 76.107422 L 117.62109 69.189453 L 124.54102 69.189453 L 124.54102 62.269531 L 117.62109 62.269531 L 117.62109 55.351562 L 110.70312 55.351562 L 110.70312 62.269531 L 110.70312 69.189453 L 110.70312 76.107422 z M 117.62109 55.351562 L 124.54102 55.351562 L 124.54102 48.431641 L 117.62109 48.431641 L 117.62109 55.351562 z M 124.54102 69.189453 L 124.54102 76.107422 L 131.45898 76.107422 L 131.45898 69.189453 L 124.54102 69.189453 z M 131.45898 69.189453 L 138.37891 69.189453 L 138.37891 62.269531 L 131.45898 62.269531 L 131.45898 69.189453 z M 138.37891 69.189453 L 138.37891 76.107422 L 145.29688 76.107422 L 145.29688 69.189453 L 138.37891 69.189453 z M 138.37891 76.107422 L 131.45898 76.107422 L 131.45898 83.027344 L 138.37891 83.027344 L 138.37891 76.107422 z M 138.37891 83.027344 L 138.37891 89.945312 L 145.29688 89.945312 L 145.29688 83.027344 L 138.37891 83.027344 z M 145.29688 89.945312 L 145.29688 96.865234 L 152.2168 96.865234 L 152.2168 89.945312 L 145.29688 89.945312 z M 131.45898 83.027344 L 124.54102 83.027344 L 124.54102 89.945312 L 124.54102 96.865234 L 131.45898 96.865234 L 131.45898 89.945312 L 131.45898 83.027344 z M 152.2168 27.675781 L 152.2168 34.59375 L 159.13477 34.59375 L 159.13477 27.675781 L 152.2168 27.675781 z M 179.89258 27.675781 L 179.89258 34.59375 L 179.89258 41.513672 L 179.89258 48.431641 L 179.89258 55.351562 L 179.89258 62.269531 L 179.89258 69.189453 L 179.89258 76.107422 L 186.81055 76.107422 L 193.73047 76.107422 L 200.64844 76.107422 L 207.56836 76.107422 L 214.48633 76.107422 L 221.40625 76.107422 L 228.32422 76.107422 L 228.32422 69.189453 L 228.32422 62.269531 L 228.32422 55.351562 L 228.32422 48.431641 L 228.32422 41.513672 L 228.32422 34.59375 L 228.32422 27.675781 L 221.40625 27.675781 L 214.48633 27.675781 L 207.56836 27.675781 L 200.64844 27.675781 L 193.73047 27.675781 L 186.81055 27.675781 L 179.89258 27.675781 z M 34.59375 34.59375 L 41.513672 34.59375 L 48.431641 34.59375 L 55.351562 34.59375 L 62.269531 34.59375 L 69.189453 34.59375 L 69.189453 41.513672 L 69.189453 48.431641 L 69.189453 55.351562 L 69.189453 62.269531 L 69.189453 69.189453 L 62.269531 69.189453 L 55.351562 69.189453 L 48.431641 69.189453 L 41.513672 69.189453 L 34.59375 69.189453 L 34.59375 62.269531 L 34.59375 55.351562 L 34.59375 48.431641 L 34.59375 41.513672 L 34.59375 34.59375 z M 186.81055 34.59375 L 193.73047 34.59375 L 200.64844 34.59375 L 207.56836 34.59375 L 214.48633 34.59375 L 221.40625 34.59375 L 221.40625 41.513672 L 221.40625 48.431641 L 221.40625 55.351562 L 221.40625 62.269531 L 221.40625 69.189453 L 214.48633 69.189453 L 207.56836 69.189453 L 200.64844 69.189453 L 193.73047 69.189453 L 186.81055 69.189453 L 186.81055 62.269531 L 186.81055 55.351562 L 186.81055 48.431641 L 186.81055 41.513672 L 186.81055 34.59375 z M 41.513672 41.513672 L 41.513672 48.431641 L 41.513672 55.351562 L 41.513672 62.269531 L 48.431641 62.269531 L 55.351562 62.269531 L 62.269531 62.269531 L 62.269531 55.351562 L 62.269531 48.431641 L 62.269531 41.513672 L 55.351562 41.513672 L 48.431641 41.513672 L 41.513672 41.513672 z M 193.73047 41.513672 L 193.73047 48.431641 L 193.73047 55.351562 L 193.73047 62.269531 L 200.64844 62.269531 L 207.56836 62.269531 L 214.48633 62.269531 L 214.48633 55.351562 L 214.48633 48.431641 L 214.48633 41.513672 L 207.56836 41.513672 L 200.64844 41.513672 L 193.73047 41.513672 z M 27.675781 83.027344 L 27.675781 89.945312 L 34.59375 89.945312 L 41.513672 89.945312 L 41.513672 83.027344 L 34.59375 83.027344 L 27.675781 83.027344 z M 159.13477 103.7832 L 166.05469 103.7832 L 166.05469 110.70312 L 159.13477 110.70312 L 159.13477 103.7832 z M 214.48633 138.37891 L 214.48633 145.29688 L 221.40625 145.29688 L 221.40625 138.37891 L 214.48633 138.37891 z M 110.70312 145.29688 L 110.70312 152.2168 L 117.62109 152.2168 L 117.62109 145.29688 L 110.70312 145.29688 z M 110.70312 152.2168 L 103.7832 152.2168 L 103.7832 159.13477 L 110.70312 159.13477 L 110.70312 152.2168 z M 172.97266 172.97266 L 179.89258 172.97266 L 186.81055 172.97266 L 193.73047 172.97266 L 193.73047 179.89258 L 193.73047 186.81055 L 193.73047 193.73047 L 186.81055 193.73047 L 179.89258 193.73047 L 172.97266 193.73047 L 172.97266 186.81055 L 172.97266 179.89258 L 172.97266 172.97266 z M 27.675781 179.89258 L 27.675781 186.81055 L 27.675781 193.73047 L 27.675781 200.64844 L 27.675781 207.56836 L 27.675781 214.48633 L 27.675781 221.40625 L 27.675781 228.32422 L 34.59375 228.32422 L 41.513672 228.32422 L 48.431641 228.32422 L 55.351562 228.32422 L 62.269531 228.32422 L 69.189453 228.32422 L 76.107422 228.32422 L 76.107422 221.40625 L 76.107422 214.48633 L 76.107422 207.56836 L 76.107422 200.64844 L 76.107422 193.73047 L 76.107422 186.81055 L 76.107422 179.89258 L 69.189453 179.89258 L 62.269531 179.89258 L 55.351562 179.89258 L 48.431641 179.89258 L 41.513672 179.89258 L 34.59375 179.89258 L 27.675781 179.89258 z M 179.89258 179.89258 L 179.89258 186.81055 L 186.81055 186.81055 L 186.81055 179.89258 L 179.89258 179.89258 z M 34.59375 186.81055 L 41.513672 186.81055 L 48.431641 186.81055 L 55.351562 186.81055 L 62.269531 186.81055 L 69.189453 186.81055 L 69.189453 193.73047 L 69.189453 200.64844 L 69.189453 207.56836 L 69.189453 214.48633 L 69.189453 221.40625 L 62.269531 221.40625 L 55.351562 221.40625 L 48.431641 221.40625 L 41.513672 221.40625 L 34.59375 221.40625 L 34.59375 214.48633 L 34.59375 207.56836 L 34.59375 200.64844 L 34.59375 193.73047 L 34.59375 186.81055 z M 41.513672 193.73047 L 41.513672 200.64844 L 41.513672 207.56836 L 41.513672 214.48633 L 48.431641 214.48633 L 55.351562 214.48633 L 62.269531 214.48633 L 62.269531 207.56836 L 62.269531 200.64844 L 62.269531 193.73047 L 55.351562 193.73047 L 48.431641 193.73047 L 41.513672 193.73047 z M 96.865234 207.56836 L 96.865234 214.48633 L 96.865234 221.40625 L 103.7832 221.40625 L 103.7832 214.48633 L 103.7832 207.56836 L 96.865234 207.56836 z M 103.7832 221.40625 L 103.7832 228.32422 L 110.70312 228.32422 L 110.70312 221.40625 L 103.7832 221.40625 z M 96.865234 221.40625 L 89.945312 221.40625 L 89.945312 214.48633 L 83.027344 214.48633 L 83.027344 221.40625 L 83.027344 228.32422 L 89.945312 228.32422 L 96.865234 228.32422 L 96.865234 221.40625 z "
     id="rect4" />
</svg>
